<svg width="164" height="24" viewBox="0 0 164 24" fill="none" xmlns="http://www.w3.org/2000/svg">
    <path fill-rule="evenodd" clip-rule="evenodd"
        d="M10.3048 0.0760736C11.4501 0.0760735 12.5823 0.273072 13.6537 0.654205C14.6137 0.995712 14.9131 2.14808 14.404 3.03495L11.9015 7.3941C11.1919 8.63026 9.41774 8.63026 8.7081 7.3941L6.20561 3.03495C5.69648 2.14808 5.99594 0.995714 6.95591 0.654207C8.02727 0.273073 9.15948 0.0760738 10.3048 0.0760736ZM1.04386 10.0072C1.65317 8.52782 2.59982 7.22383 3.7971 6.19469C4.57116 5.52934 5.71323 5.84471 6.22236 6.73158L8.72485 11.0907C9.43449 12.3269 11.2086 12.3269 11.9183 11.0907L14.4208 6.73158C14.9299 5.84471 16.072 5.52934 16.846 6.19469C18.0433 7.22383 18.9899 8.52782 19.5993 10.0072C20.4452 12.0612 20.5936 14.3385 20.0215 16.486C19.4493 18.6335 18.1886 20.5311 16.4348 21.8845C14.681 23.2379 12.5322 23.9715 10.3216 23.9715C8.11094 23.9715 5.9621 23.2379 4.20831 21.8845C2.45451 20.5311 1.19377 18.6335 0.621622 16.486C0.0494735 14.3385 0.197891 12.0612 1.04386 10.0072Z"
        fill="url(#paint0_linear_0_3)" />
    <path fill-rule="evenodd" clip-rule="evenodd"
        d="M14.1463 0.0760736C15.2881 0.0760735 16.4169 0.273072 17.4851 0.654205C18.4421 0.995712 18.7407 2.14808 18.2331 3.03495L15.7382 7.3941C15.0307 8.63026 13.2619 8.63026 12.5544 7.3941L10.0594 3.03495C9.55182 2.14808 9.85038 0.995714 10.8075 0.654207C11.8756 0.273073 13.0044 0.0760738 14.1463 0.0760736ZM4.91321 10.0072C5.52069 8.52782 6.46449 7.22383 7.65816 6.19469C8.42989 5.52934 9.56852 5.84471 10.0761 6.73158L12.5711 11.0907C13.2786 12.3269 15.0474 12.3269 15.7549 11.0907L18.2498 6.73158C18.7574 5.84471 19.896 5.52934 20.6678 6.19469C21.8614 7.22383 22.8052 8.52782 23.4127 10.0072C24.2561 12.0612 24.4041 14.3385 23.8337 16.486C23.2633 18.6335 22.0063 20.5311 20.2578 21.8845C18.5093 23.2379 16.3669 23.9715 14.163 23.9715C11.959 23.9715 9.81665 23.2379 8.06813 21.8845C6.31962 20.5311 5.06268 18.6335 4.49225 16.486C3.92182 14.3385 4.06979 12.0612 4.91321 10.0072Z"
        fill="url(#paint1_linear_0_3)" />
    <path fill-rule="evenodd" clip-rule="evenodd"
        d="M12.2261 2.85883C13.1046 2.85883 13.9731 3.01014 14.7948 3.30288C15.5311 3.56518 15.7608 4.45029 15.3703 5.13148L13.4508 8.47965C12.9065 9.42912 11.5457 9.42912 11.0014 8.47965L9.08191 5.13148C8.6914 4.4503 8.92109 3.56518 9.65742 3.30288C10.4792 3.01014 11.3476 2.85883 12.2261 2.85883ZM5.1227 10.4867C5.59006 9.35044 6.31617 8.34888 7.23452 7.55841C7.82824 7.04737 8.70425 7.2896 9.09476 7.97078L11.0142 11.319C11.5586 12.2684 12.9194 12.2684 13.4637 11.319L15.3832 7.97078C15.7737 7.2896 16.6497 7.04737 17.2434 7.55841C18.1618 8.34888 18.8879 9.35044 19.3552 10.4867C20.0041 12.0644 20.118 13.8135 19.6791 15.463C19.2402 17.1124 18.2732 18.5699 16.928 19.6094C15.5828 20.6489 13.9346 21.2124 12.239 21.2124C10.5434 21.2124 8.89514 20.6489 7.54992 19.6094C6.20471 18.5699 5.23769 17.1124 4.79883 15.463C4.35998 13.8135 4.47382 12.0644 5.1227 10.4867Z"
        fill="#3A3A3A" />
    <path
        d="M86.1533 22.1672C86.0456 21.3683 86.0097 20.5137 86.0097 19.4734V18.1915C85.9917 17.9314 85.9917 17.6899 85.9917 17.5227C86.4945 17.9686 86.7638 18.1729 87.2306 18.3773C87.895 18.6745 88.8107 18.8603 89.6546 18.8603C91.1269 18.8603 92.4376 18.3401 93.3534 17.3926C94.3768 16.3337 94.9154 14.7917 94.9154 12.8968C94.9154 11.0204 94.4307 9.55277 93.479 8.56814C92.5454 7.62066 91.2526 7.13764 89.6725 7.13764C88.1823 7.13764 87.069 7.52777 85.9917 8.45667C85.9917 8.36378 86.0097 8.21516 86.0097 8.10369V7.47204H82.4725C82.5802 8.41951 82.6161 9.18121 82.6161 10.3888V19.4548C82.6161 20.4394 82.5623 21.3683 82.4725 22.1672H86.1533ZM88.8646 16.055C87.2486 16.055 86.0456 14.736 86.0456 12.9897C86.0456 11.2991 87.2665 9.9429 88.7568 9.9429C90.4446 9.9429 91.4142 11.039 91.4142 12.9339C91.4142 13.9929 91.1269 14.8475 90.6242 15.3491C90.1573 15.8135 89.5468 16.055 88.8646 16.055Z"
        fill="#3A3A3A" />
    <path
        d="M81.5877 14.2901C81.5698 14.1044 81.5698 13.9929 81.5698 13.9186C81.5159 12.8596 81.4441 12.0794 81.3004 11.4849C80.672 8.71676 78.7149 7.13764 75.9139 7.13764C72.4844 7.13764 70.2041 9.57135 70.2041 13.2498C70.2041 15.089 70.7787 16.6681 71.8381 17.7828C72.8615 18.8417 74.2441 19.3619 76.0037 19.3619C77.7812 19.3619 79.2176 18.8231 80.2411 17.7828C80.7438 17.2626 81.0132 16.8353 81.4261 15.8693L78.3019 14.9589C78.1583 15.442 78.0326 15.6463 77.7633 15.9064C77.2964 16.3523 76.668 16.5938 75.9498 16.5938C74.5313 16.5938 73.6874 15.7949 73.5079 14.2901H81.5877ZM73.5618 11.7264C73.867 10.5002 74.6391 9.90575 75.9139 9.90575C77.1528 9.90575 77.9249 10.5374 78.1762 11.7264H73.5618Z"
        fill="#3A3A3A" />
    <path
        d="M112.679 14.2901C112.661 14.1044 112.661 13.9929 112.661 13.9186C112.607 12.8596 112.536 12.0794 112.392 11.4849C111.763 8.71676 109.806 7.13764 107.005 7.13764C103.576 7.13764 101.296 9.57135 101.296 13.2498C101.296 15.089 101.87 16.6681 102.93 17.7828C103.953 18.8417 105.336 19.3619 107.095 19.3619C108.873 19.3619 110.309 18.8231 111.333 17.7828C111.835 17.2626 112.105 16.8353 112.518 15.8693L109.393 14.9589C109.25 15.442 109.124 15.6463 108.855 15.9064C108.388 16.3523 107.759 16.5938 107.041 16.5938C105.623 16.5938 104.779 15.7949 104.599 14.2901H112.679ZM104.653 11.7264C104.958 10.5002 105.731 9.90575 107.005 9.90575C108.244 9.90575 109.016 10.5374 109.268 11.7264H104.653Z"
        fill="#3A3A3A" />
    <path
        d="M45.6864 19.3247C49.2595 19.3247 51.6296 16.8725 51.6296 13.1755C51.6296 9.49703 49.3313 7.13764 45.7044 7.13764C42.0774 7.13764 39.7791 9.49703 39.7791 13.2126C39.7791 16.9468 42.0774 19.3247 45.6864 19.3247ZM45.7223 9.92432C47.2485 9.92432 48.1642 11.1505 48.1642 13.2312C48.1642 15.2933 47.2665 16.5009 45.7044 16.5009C44.1423 16.5009 43.2086 15.2562 43.2086 13.194C43.2086 11.1505 44.1423 9.92432 45.7223 9.92432Z"
        fill="#3A3A3A" />
    <path
        d="M27.7442 7.13769C28.1392 8.08517 28.3906 8.67966 28.4983 8.93975L31.5148 16.9097C31.82 17.7085 31.9098 18.0058 31.9996 18.4702H35.9318C36.0216 18.0058 36.1113 17.7085 36.4166 16.9097L39.433 8.93975C39.6665 8.32668 39.8101 7.9737 40.1692 7.13769H36.1832C36.1472 7.54641 36.0395 8.04801 35.842 8.73539L34.1722 14.4945C34.1542 14.5503 34.1363 14.6246 34.1004 14.7175C34.0824 14.8104 34.0644 14.8661 34.0465 14.9033C34.0285 14.9776 34.0106 15.0705 33.9567 15.2377C33.8669 14.9218 33.8669 14.9033 33.8131 14.7175C33.7772 14.6246 33.7592 14.5503 33.7412 14.5131L32.0714 8.73539C31.856 7.9737 31.7662 7.58356 31.7303 7.13769H27.7442Z"
        fill="#3A3A3A" />
    <path fill-rule="evenodd" clip-rule="evenodd"
        d="M53.4172 10.8052C53.4172 9.22646 53.3812 8.23064 53.2734 7.13768H57.0297C56.9219 8.13349 56.886 9.10502 56.886 10.8052V15.3333C56.886 15.7683 56.8919 16.2032 56.9031 16.6283H57.6555V19.3605H52.647V16.6283H53.4057C53.4137 16.2398 53.4172 15.8171 53.4172 15.3333V10.8052Z"
        fill="#3A3A3A" />
    <path fill-rule="evenodd" clip-rule="evenodd"
        d="M96.3373 10.8052C96.3373 9.22646 96.3013 8.23064 96.1935 7.13768H99.9498C99.842 8.13349 99.806 9.10502 99.806 10.8052V15.3333C99.806 15.6464 99.8091 15.9594 99.815 16.2688H100.575V19.001H95.5668V16.2688H96.3318C96.3356 15.9808 96.3373 15.6721 96.3373 15.3333V10.8052Z"
        fill="#3A3A3A" />
    <path
        d="M69.5758 11.0204C68.9833 8.54956 67.0621 7.13764 64.297 7.13764C60.7957 7.13764 58.5334 9.51561 58.5334 13.2312C58.5334 15.0518 59.1079 16.6867 60.1493 17.7456C61.1369 18.786 62.6092 19.3433 64.3329 19.3433C66.4157 19.3433 68.0496 18.5816 68.9474 17.2069C69.2885 16.6681 69.504 16.1665 69.7015 15.3676L66.3977 14.8289C66.3259 15.2562 66.2361 15.442 66.0745 15.6835C65.7154 16.2037 65.069 16.5009 64.3688 16.5009C62.9324 16.5009 62.0167 15.2004 62.0167 13.194C62.0167 11.1505 62.8785 9.96148 64.3329 9.96148C64.9793 9.96148 65.482 10.1844 65.8411 10.6117C66.0745 10.8904 66.1823 11.1505 66.3439 11.7078L69.5758 11.0204Z"
        fill="#3A3A3A" />
    <path d="M113.695 7.3087V10.28H112.958V7.3087H111.99V6.66866H114.662V7.3087H113.695Z"
        fill="#3A3A3A" />
    <path
        d="M116.889 6.66866L117.548 8.75531H117.58L118.265 6.66866H119.425V10.28H118.699V7.38155H118.667L117.925 9.57228H117.182L116.445 7.38155H116.414V10.28H115.697V6.66866H116.889Z"
        fill="#3A3A3A" />
    <path
        d="M123.741 9.70603V12.0943H125.202V10.9001H133.305V12.276H134.843V9.70603H123.741ZM133.189 6.66884C131.043 7.11014 127.282 7.35675 124.09 7.42165C124.219 7.7072 124.361 8.22637 124.387 8.55086C127.657 8.49894 131.534 8.26531 134.21 7.7072L133.189 6.66884ZM125.305 8.5898C125.641 9.04408 125.99 9.68007 126.106 10.0954L127.412 9.55028C127.269 9.10898 126.895 8.51192 126.52 8.0836L125.305 8.5898ZM128.097 8.33021C128.433 8.82343 128.743 9.51134 128.833 9.93966L130.151 9.45942C130.035 9.00514 129.686 8.35617 129.337 7.87593L128.097 8.33021ZM131.34 11.9645C132.077 12.5615 132.943 13.4441 133.318 14.0412L134.429 13.2105C134.029 12.6004 133.124 11.7698 132.374 11.2246L131.34 11.9645ZM128.019 11.2116C128.691 11.4972 129.479 11.9774 129.88 12.3279L130.656 11.4583C130.242 11.1078 129.415 10.6795 128.769 10.4199L128.019 11.2116ZM132.193 7.87593C131.974 8.44702 131.534 9.23877 131.185 9.77093L132.349 10.2122C132.749 9.75795 133.24 9.05706 133.719 8.36915L132.193 7.87593ZM131.483 14.3657V14.5863C130.268 16.5462 127.063 17.3769 123.444 17.6365C123.728 17.935 124.116 18.558 124.258 18.9214C127.954 18.5061 131.405 17.4807 133.008 14.9497L132.038 14.3267L131.793 14.3657H131.483ZM127.282 15.1055L126.08 15.5727C127.825 17.6235 130.733 18.584 134.339 18.8955C134.533 18.4931 134.908 17.8441 135.231 17.5197C131.715 17.3379 128.743 16.6111 127.282 15.1055ZM127.954 13.3273C127.076 14.4306 125.408 15.3261 123.728 15.8453C124.025 16.0789 124.542 16.5981 124.775 16.8707C126.416 16.2217 128.213 15.1444 129.286 13.7946L127.954 13.3273ZM126.92 11.4712V12.3798C126.92 13.4571 127.256 13.7686 128.678 13.7686C128.975 13.7686 130.087 13.7686 130.397 13.7686C131.366 13.7686 131.728 13.509 131.857 12.4966C131.496 12.4317 130.953 12.263 130.681 12.0813C130.63 12.6134 130.552 12.6913 130.229 12.6913C129.958 12.6913 129.066 12.6913 128.872 12.6913C128.433 12.6913 128.342 12.6653 128.342 12.3668V11.4712H126.92ZM125.731 11.4583C125.421 12.1721 124.84 12.886 124.103 13.3013L125.163 14.171C126.003 13.6258 126.546 12.7951 126.895 11.9645L125.731 11.4583ZM127.618 14.3657L126.559 15.43H131.832V14.3657H127.618Z"
        fill="#3A3A3A" />
    <path
        d="M144.407 11.5751H147.211V12.9509H144.407V11.5751ZM142.998 10.2382V14.2748H148.711V10.2382H142.998ZM145.984 13.8854V17.0135C145.984 18.3374 146.242 18.7916 147.418 18.7916C147.625 18.7916 148.077 18.7916 148.31 18.7916C149.253 18.7916 149.615 18.2984 149.732 16.3775C149.344 16.2736 148.723 16.027 148.439 15.7804C148.4 17.2211 148.362 17.4158 148.142 17.4158C148.038 17.4158 147.741 17.4158 147.664 17.4158C147.483 17.4158 147.457 17.3769 147.457 17.0135V13.8854H145.984ZM143.825 14.0931C143.709 15.7804 143.45 16.9875 141.512 17.6884C141.835 17.961 142.236 18.545 142.391 18.9085C144.743 17.948 145.182 16.3256 145.337 14.0931H143.825ZM144.2 7.04524V8.46H147.328V7.04524H144.2ZM143.282 8.20042C143.037 9.04408 142.481 10.1084 141.809 10.7574C142.158 10.9521 142.701 11.3285 143.011 11.601C143.735 10.8482 144.368 9.65411 144.795 8.5898L143.282 8.20042ZM146.152 7.04524V7.77209H146.423C146.862 9.05706 147.586 10.4199 148.439 11.3674C148.736 11.0559 149.357 10.6016 149.744 10.381C148.917 9.6022 148.129 8.29127 147.741 7.04524H146.152ZM138.035 10.6795V11.8476H141.938V10.6795H138.035ZM138.074 7.09716V8.27829H141.9V7.09716H138.074ZM138.035 12.4447V13.6258H141.938V12.4447H138.035ZM137.415 8.84939V10.0824H142.365V8.84939H137.415ZM138.707 14.2488V15.4819H140.633V16.9615H138.707V18.1946H141.951V14.2488H138.707ZM138.009 14.2488V18.7138H139.315V14.2488H138.009Z"
        fill="#3A3A3A" />
    <path
        d="M154.552 19.0123C154.974 18.121 155.267 17.2557 155.431 16.4164C155.595 15.5684 155.677 14.5906 155.677 13.4831V7.46059C158.167 7.46059 160.536 7.3481 162.785 7.12312V8.73257C161.174 8.90563 159.343 9.01379 157.292 9.05706V13.4831C157.292 14.5041 157.223 15.4603 157.085 16.3515C156.956 17.2428 156.741 18.1297 156.439 19.0123H154.552ZM151.786 19.0123C152.536 17.1606 153.027 15.3175 153.26 13.4831H154.992C154.725 15.6376 154.285 17.4807 153.673 19.0123H151.786ZM151.903 10.381L154.992 11.1467V12.886L151.903 12.1462V10.381ZM152.161 7.33079L154.966 8.05764V9.82285L152.161 9.096V7.33079ZM158.055 9.73199C159.787 9.73199 161.497 9.65411 163.186 9.49836V11.0819C162.651 11.1338 162.246 11.1684 161.971 11.1857V13.0677L163.535 12.4966V14.145L161.997 14.7161C162.04 15.5122 162.182 16.252 162.423 16.9356C162.673 17.6192 163.065 18.3114 163.599 19.0123H161.596C161.174 18.2076 160.868 17.3985 160.678 16.5851C160.489 15.7718 160.394 14.9021 160.394 13.9763V11.2765C160.213 11.2765 159.95 11.2852 159.606 11.3025L159.606 17.7669C159.606 18.0436 159.637 18.8275 159.697 19.0123H157.953C158.023 18.8005 158.052 18.0124 158.055 17.7669L158.055 9.73199Z"
        fill="#3A3A3A" />
    <defs>
        <linearGradient id="paint0_linear_0_3" x1="3.1143" y1="3.96267" x2="16.9294" y2="21.015"
            gradientUnits="userSpaceOnUse">
            <stop stop-color="#FEFF9B" />
            <stop offset="1" stop-color="#FEFF9B" stop-opacity="0" />
        </linearGradient>
        <linearGradient id="paint1_linear_0_3" x1="14.2109" y1="24.5952" x2="4.13095" y2="12.088"
            gradientUnits="userSpaceOnUse">
            <stop stop-color="#A2F59B" />
            <stop offset="1" stop-color="#A2F59B" stop-opacity="0" />
        </linearGradient>
    </defs>
</svg>
    