<!-- <svg width="2265" height="383" viewBox="0 0 2265 383" fill="none" xmlns="http://www.w3.org/2000/svg">
<path d="M1273.66 347.04C1272.11 335.929 1271.6 324.043 1271.6 309.573V291.744C1271.34 288.126 1271.34 284.767 1271.34 282.442C1278.57 288.643 1282.44 291.485 1289.15 294.328C1298.7 298.462 1311.87 301.046 1324 301.046C1345.16 301.046 1364.01 293.811 1377.17 280.633C1391.88 265.904 1399.63 244.458 1399.63 218.102C1399.63 192.004 1392.66 171.591 1378.98 157.896C1365.55 144.718 1346.97 138 1324.25 138C1302.83 138 1286.83 143.426 1271.34 156.346C1271.34 155.054 1271.6 152.987 1271.6 151.436V142.651H1220.75C1222.3 155.829 1222.81 166.423 1222.81 183.219V309.314C1222.81 323.009 1222.04 335.929 1220.75 347.04H1273.66ZM1312.64 262.029C1289.41 262.029 1272.11 243.683 1272.11 219.394C1272.11 195.88 1289.67 177.017 1311.09 177.017C1335.35 177.017 1349.29 192.263 1349.29 218.619C1349.29 233.347 1345.16 245.233 1337.94 252.21C1331.22 258.669 1322.45 262.029 1312.64 262.029Z" fill="url(#animatedGradient)"/>
<path d="M1208.02 237.481C1207.77 234.897 1207.77 233.347 1207.77 232.313C1206.99 217.585 1205.96 206.733 1203.89 198.464C1194.86 159.963 1166.73 138 1126.46 138C1077.16 138 1044.38 171.849 1044.38 223.011C1044.38 248.592 1052.64 270.556 1067.87 286.059C1082.58 300.788 1102.45 308.023 1127.75 308.023C1153.3 308.023 1173.95 300.529 1188.67 286.059C1195.89 278.824 1199.76 272.881 1205.7 259.445L1160.79 246.783C1158.72 253.502 1156.92 256.344 1153.05 259.961C1146.33 266.163 1137.3 269.522 1126.98 269.522C1106.58 269.522 1094.45 258.411 1091.87 237.481H1208.02ZM1092.65 201.823C1097.03 184.769 1108.13 176.501 1126.46 176.501C1144.27 176.501 1155.37 185.286 1158.98 201.823H1092.65Z" fill="url(#brandGradient)"/>
<path d="M1655 237.481C1654.74 234.897 1654.74 233.347 1654.74 232.313C1653.97 217.585 1652.94 206.733 1650.87 198.464C1641.84 159.963 1613.7 138 1573.43 138C1524.13 138 1491.35 171.849 1491.35 223.011C1491.35 248.592 1499.61 270.556 1514.84 286.059C1529.55 300.788 1549.43 308.023 1574.72 308.023C1600.28 308.023 1620.93 300.529 1635.64 286.059C1642.87 278.824 1646.74 272.881 1652.68 259.445L1607.76 246.783C1605.7 253.502 1603.89 256.344 1600.02 259.961C1593.31 266.163 1584.28 269.522 1573.95 269.522C1553.56 269.522 1541.43 258.411 1538.85 237.481H1655ZM1539.62 201.823C1544.01 184.769 1555.11 176.501 1573.43 176.501C1591.24 176.501 1602.34 185.286 1605.96 201.823H1539.62Z" fill="url(#brandGradient)"/>
<path d="M691.926 307.506C743.292 307.506 777.363 273.398 777.363 221.978C777.363 170.816 744.324 138 692.184 138C640.044 138 607.005 170.816 607.005 222.494C607.005 274.431 640.044 307.506 691.926 307.506ZM692.442 176.759C714.382 176.759 727.546 193.813 727.546 222.753C727.546 251.435 714.641 268.23 692.184 268.23C669.728 268.23 656.306 250.918 656.306 222.236C656.306 193.813 669.728 176.759 692.442 176.759Z" fill="url(#brandGradient)"/>
<path d="M434 138C439.679 151.178 443.292 159.447 444.841 163.064L488.205 273.915C492.593 285.026 493.884 289.16 495.174 295.62H551.702C552.993 289.16 554.283 285.026 558.671 273.915L602.035 163.064C605.391 154.537 607.456 149.628 612.618 138H555.316C554.8 143.685 553.251 150.661 550.412 160.222L526.406 240.324C526.148 241.099 525.89 242.132 525.374 243.424C525.116 244.716 524.858 245.491 524.6 246.008C524.342 247.042 524.083 248.334 523.309 250.659C522.018 246.267 522.018 246.008 521.244 243.424C520.728 242.132 520.47 241.099 520.212 240.582L496.207 160.222C493.109 149.628 491.819 144.201 491.302 138H434Z" fill="#213547"/>
<path fill-rule="evenodd" clip-rule="evenodd" d="M803.067 189.01C803.067 167.052 802.55 153.202 801 138H855C853.45 151.85 852.933 165.363 852.933 189.01V251.99C852.933 258.039 853.018 264.087 853.179 270H864V308H792V270H802.901C803.017 264.596 803.067 258.719 803.067 251.99V189.01Z" fill="#213547"/>
<path fill-rule="evenodd" clip-rule="evenodd" d="M1420.07 189.01C1420.07 167.052 1419.55 153.202 1418 138H1472C1470.45 151.85 1469.93 165.363 1469.93 189.01V251.99C1469.93 256.344 1469.98 260.697 1470.06 265H1481V303H1472H1418H1409V265H1419.99C1420.04 260.994 1420.07 256.701 1420.07 251.99V189.01Z" fill="#213547"/>
<path d="M1035.35 192.004C1026.83 157.638 999.216 138 959.465 138C909.132 138 876.609 171.074 876.609 222.753C876.609 248.075 884.869 270.814 899.84 285.542C914.036 300.012 935.202 307.764 959.982 307.764C989.923 307.764 1013.41 297.17 1026.32 278.049C1031.22 270.556 1034.32 263.579 1037.16 252.468L989.665 244.975C988.633 250.918 987.342 253.502 985.019 256.861C979.857 264.096 970.564 268.23 960.498 268.23C939.848 268.23 926.684 250.143 926.684 222.236C926.684 193.813 939.074 177.276 959.982 177.276C969.274 177.276 976.501 180.376 981.664 186.319C985.019 190.195 986.568 193.813 988.891 201.565L1035.35 192.004Z" fill="#213547"/>
<path d="M1703.19 176.81V210.473H1723.78V193.641H1838V213.034H1859.67V176.81H1703.19ZM1836.36 134C1806.12 140.22 1753.1 143.696 1708.11 144.611C1709.93 148.636 1711.93 155.954 1712.3 160.528C1758.39 159.796 1813.04 156.503 1850.75 148.636L1836.36 134ZM1725.23 161.076C1729.97 167.48 1734.89 176.444 1736.53 182.299L1754.93 174.615C1752.92 168.394 1747.64 159.979 1742.36 153.941L1725.23 161.076ZM1764.58 157.417C1769.32 164.37 1773.69 174.066 1774.96 180.103L1793.55 173.334C1791.91 166.931 1786.99 157.783 1782.07 151.014L1764.58 157.417ZM1810.31 208.643C1820.69 217.059 1832.89 229.499 1838.18 237.915L1853.84 226.206C1848.2 217.608 1835.44 205.899 1824.88 198.215L1810.31 208.643ZM1763.49 198.032C1772.96 202.057 1784.07 208.826 1789.72 213.766L1800.65 201.508C1794.82 196.569 1783.16 190.531 1774.05 186.872L1763.49 198.032ZM1822.33 151.014C1819.23 159.064 1813.04 170.224 1808.12 177.725L1824.51 183.945C1830.16 177.542 1837.08 167.663 1843.82 157.966L1822.33 151.014ZM1812.31 242.489V245.599C1795.19 273.224 1750.01 284.933 1699 288.592C1703.01 292.8 1708.47 301.581 1710.48 306.704C1762.58 300.849 1811.22 286.396 1833.81 250.721L1820.14 241.94L1816.68 242.489H1812.31ZM1753.1 252.917L1736.16 259.503C1760.76 288.409 1801.74 301.947 1852.57 306.338C1855.3 300.666 1860.58 291.519 1865.14 286.945C1815.59 284.384 1773.69 274.139 1753.1 252.917ZM1762.58 227.853C1750.19 243.403 1726.69 256.027 1703.01 263.345C1707.2 266.638 1714.48 273.956 1717.76 277.798C1740.9 268.65 1766.22 253.466 1781.34 234.439L1762.58 227.853ZM1748 201.691V214.498C1748 229.682 1752.74 234.073 1772.78 234.073C1776.97 234.073 1792.64 234.073 1797.01 234.073C1810.67 234.073 1815.77 230.414 1817.59 216.144C1812.49 215.229 1804.84 212.851 1801.01 210.29C1800.29 217.791 1799.19 218.888 1794.64 218.888C1790.81 218.888 1778.24 218.888 1775.51 218.888C1769.32 218.888 1768.04 218.522 1768.04 214.315V201.691H1748ZM1731.24 201.508C1726.87 211.57 1718.67 221.633 1708.29 227.487L1723.23 239.744C1735.07 232.061 1742.72 220.352 1747.64 208.643L1731.24 201.508ZM1757.84 242.489L1742.9 257.491H1817.23V242.489H1757.84Z" fill="#213547"/>
<path d="M1994.48 203.155H2034.01V222.547H1994.48V203.155ZM1974.62 184.311V241.208H2055.14V184.311H1974.62ZM2016.7 235.72V279.81C2016.7 298.471 2020.35 304.874 2036.92 304.874C2039.84 304.874 2046.21 304.874 2049.49 304.874C2062.79 304.874 2067.89 297.922 2069.53 270.846C2064.07 269.382 2055.32 265.906 2051.32 262.43C2050.77 282.737 2050.22 285.482 2047.13 285.482C2045.67 285.482 2041.48 285.482 2040.39 285.482C2037.83 285.482 2037.47 284.933 2037.47 279.81V235.72H2016.7ZM1986.28 238.647C1984.64 262.43 1981 279.444 1953.67 289.324C1958.23 293.166 1963.87 301.398 1966.06 306.521C1999.21 292.983 2005.41 270.114 2007.59 238.647H1986.28ZM1991.56 139.306V159.247H2035.65V139.306H1991.56ZM1978.63 155.588C1975.17 167.48 1967.34 182.481 1957.86 191.629C1962.78 194.373 1970.43 199.679 1974.8 203.521C1985.01 192.91 1993.93 176.078 1999.94 161.076L1978.63 155.588ZM2019.07 139.306V149.551H2022.9C2029.09 167.663 2039.29 186.872 2051.32 200.228C2055.51 195.837 2064.25 189.434 2069.71 186.323C2058.06 175.346 2046.94 156.869 2041.48 139.306H2019.07ZM1904.67 190.531V206.997H1959.68V190.531H1904.67ZM1905.22 140.037V156.686H1959.14V140.037H1905.22ZM1904.67 215.412V232.061H1959.68V215.412H1904.67ZM1895.92 164.735V182.116H1965.7V164.735H1895.92ZM1914.14 240.842V258.222H1941.29V279.079H1914.14V296.459H1959.87V240.842H1914.14ZM1904.3 240.842V303.777H1922.7V240.842H1904.3Z" fill="#213547"/>
<path d="M2137.48 307.984C2143.43 295.422 2147.56 283.225 2149.87 271.395C2152.18 259.442 2153.33 245.66 2153.33 230.048V145.16C2188.43 145.16 2221.83 143.574 2253.52 140.403V163.089C2230.81 165.528 2205.01 167.053 2176.1 167.663V230.048C2176.1 244.44 2175.13 257.917 2173.19 270.48C2171.36 283.042 2168.33 295.544 2164.08 307.984H2137.48ZM2098.5 307.984C2109.06 281.884 2115.99 255.905 2119.26 230.048H2143.68C2139.91 260.418 2133.72 286.396 2125.09 307.984H2098.5ZM2100.14 186.323L2143.68 197.117V221.633L2100.14 211.204V186.323ZM2103.78 143.33L2143.31 153.576V178.457L2103.78 168.211V143.33ZM2186.85 177.176C2211.26 177.176 2235.37 176.078 2259.17 173.883V196.203C2251.64 196.934 2245.93 197.422 2242.05 197.666V224.194L2264.09 216.144V239.379L2242.41 247.428C2243.02 258.649 2245.02 269.077 2248.42 278.713C2251.94 288.348 2257.47 298.105 2265 307.984H2236.76C2230.81 296.642 2226.5 285.238 2223.83 273.773C2221.16 262.308 2219.82 250.051 2219.82 237V198.947C2217.27 198.947 2213.57 199.069 2208.71 199.313L2208.71 290.43C2208.71 294.331 2209.16 305.38 2210 307.984H2185.42C2186.41 304.999 2186.82 293.891 2186.85 290.43L2186.85 177.176Z" fill="#213547"/>
<path fill-rule="evenodd" clip-rule="evenodd" d="M161.73 0C180.206 -3.02834e-06 198.471 3.15753 215.754 9.26641C231.241 14.7401 236.072 33.2106 227.858 47.4254L187.488 117.295C176.04 137.108 147.42 137.108 135.972 117.295L95.6013 47.4255C87.388 33.2106 92.2189 14.7402 107.705 9.26643C124.988 3.15755 143.253 3.02834e-06 161.73 0ZM12.3316 159.178C22.161 135.466 37.4324 114.566 56.7471 98.0704C69.2342 87.4061 87.6582 92.4608 95.8715 106.676L136.242 176.545C147.69 196.358 176.31 196.358 187.758 176.545L228.128 106.676C236.342 92.4608 254.766 87.4061 267.253 98.0704C286.568 114.566 301.839 135.466 311.668 159.178C325.316 192.1 327.71 228.601 318.48 263.021C309.25 297.441 288.912 327.856 260.619 349.549C232.327 371.242 197.662 383 162 383C126.338 383 91.673 371.242 63.3807 349.549C35.0883 327.856 14.75 297.441 5.52007 263.021C-3.70986 228.601 -1.31559 192.1 12.3316 159.178Z" fill="#213547"/>
</svg>
 -->


<svg width="2265" height="383" viewBox="0 0 2265 383" fill="none" xmlns="http://www.w3.org/2000/svg">
<defs>
    <linearGradient id="animatedGradient" x1="0%" y1="0%" x2="100%" y2="0%">
        <stop stop-color="rgb(62, 81, 81)" offset="-50%">
            <animate attributeName="offset"
                values="-50%;50%"
                dur="3s"
                repeatCount="indefinite"/>
        </stop>
        <stop stop-color="rgb(222, 203, 164)" offset="0%">
            <animate attributeName="offset"
                values="0%;100%"
                dur="3s"
                repeatCount="indefinite"/>
        </stop>
        <stop stop-color="rgb(62, 81, 81)" offset="50%">
            <animate attributeName="offset"
                values="50%;150%"
                dur="3s"
                repeatCount="indefinite"/>
        </stop>
    </linearGradient>
</defs>
<path d="M1273.66 347.04C1272.11 335.929 1271.6 324.043 1271.6 309.573V291.744C1271.34 288.126 1271.34 284.767 1271.34 282.442C1278.57 288.643 1282.44 291.485 1289.15 294.328C1298.7 298.462 1311.87 301.046 1324 301.046C1345.16 301.046 1364.01 293.811 1377.17 280.633C1391.88 265.904 1399.63 244.458 1399.63 218.102C1399.63 192.004 1392.66 171.591 1378.98 157.896C1365.55 144.718 1346.97 138 1324.25 138C1302.83 138 1286.83 143.426 1271.34 156.346C1271.34 155.054 1271.6 152.987 1271.6 151.436V142.651H1220.75C1222.3 155.829 1222.81 166.423 1222.81 183.219V309.314C1222.81 323.009 1222.04 335.929 1220.75 347.04H1273.66ZM1312.64 262.029C1289.41 262.029 1272.11 243.683 1272.11 219.394C1272.11 195.88 1289.67 177.017 1311.09 177.017C1335.35 177.017 1349.29 192.263 1349.29 218.619C1349.29 233.347 1345.16 245.233 1337.94 252.21C1331.22 258.669 1322.45 262.029 1312.64 262.029Z" fill="url(#animatedGradient)"/>
<path d="M1208.02 237.481C1207.77 234.897 1207.77 233.347 1207.77 232.313C1206.99 217.585 1205.96 206.733 1203.89 198.464C1194.86 159.963 1166.73 138 1126.46 138C1077.16 138 1044.38 171.849 1044.38 223.011C1044.38 248.592 1052.64 270.556 1067.87 286.059C1082.58 300.788 1102.45 308.023 1127.75 308.023C1153.3 308.023 1173.95 300.529 1188.67 286.059C1195.89 278.824 1199.76 272.881 1205.7 259.445L1160.79 246.783C1158.72 253.502 1156.92 256.344 1153.05 259.961C1146.33 266.163 1137.3 269.522 1126.98 269.522C1106.58 269.522 1094.45 258.411 1091.87 237.481H1208.02ZM1092.65 201.823C1097.03 184.769 1108.13 176.501 1126.46 176.501C1144.27 176.501 1155.37 185.286 1158.98 201.823H1092.65Z" fill="url(#animatedGradient)"/>
<path d="M1655 237.481C1654.74 234.897 1654.74 233.347 1654.74 232.313C1653.97 217.585 1652.94 206.733 1650.87 198.464C1641.84 159.963 1613.7 138 1573.43 138C1524.13 138 1491.35 171.849 1491.35 223.011C1491.35 248.592 1499.61 270.556 1514.84 286.059C1529.55 300.788 1549.43 308.023 1574.72 308.023C1600.28 308.023 1620.93 300.529 1635.64 286.059C1642.87 278.824 1646.74 272.881 1652.68 259.445L1607.76 246.783C1605.7 253.502 1603.89 256.344 1600.02 259.961C1593.31 266.163 1584.28 269.522 1573.95 269.522C1553.56 269.522 1541.43 258.411 1538.85 237.481H1655ZM1539.62 201.823C1544.01 184.769 1555.11 176.501 1573.43 176.501C1591.24 176.501 1602.34 185.286 1605.96 201.823H1539.62Z" fill="url(#animatedGradient)"/>
<path d="M691.926 307.506C743.292 307.506 777.363 273.398 777.363 221.978C777.363 170.816 744.324 138 692.184 138C640.044 138 607.005 170.816 607.005 222.494C607.005 274.431 640.044 307.506 691.926 307.506ZM692.442 176.759C714.382 176.759 727.546 193.813 727.546 222.753C727.546 251.435 714.641 268.23 692.184 268.23C669.728 268.23 656.306 250.918 656.306 222.236C656.306 193.813 669.728 176.759 692.442 176.759Z" fill="url(#animatedGradient)"/>
<path d="M434 138C439.679 151.178 443.292 159.447 444.841 163.064L488.205 273.915C492.593 285.026 493.884 289.16 495.174 295.62H551.702C552.993 289.16 554.283 285.026 558.671 273.915L602.035 163.064C605.391 154.537 607.456 149.628 612.618 138H555.316C554.8 143.685 553.251 150.661 550.412 160.222L526.406 240.324C526.148 241.099 525.89 242.132 525.374 243.424C525.116 244.716 524.858 245.491 524.6 246.008C524.342 247.042 524.083 248.334 523.309 250.659C522.018 246.267 522.018 246.008 521.244 243.424C520.728 242.132 520.47 241.099 520.212 240.582L496.207 160.222C493.109 149.628 491.819 144.201 491.302 138H434Z" fill="url(#animatedGradient)"/>
<path fill-rule="evenodd" clip-rule="evenodd" d="M803.067 189.01C803.067 167.052 802.55 153.202 801 138H855C853.45 151.85 852.933 165.363 852.933 189.01V251.99C852.933 258.039 853.018 264.087 853.179 270H864V308H792V270H802.901C803.017 264.596 803.067 258.719 803.067 251.99V189.01Z" fill="url(#animatedGradient)"/>
<path fill-rule="evenodd" clip-rule="evenodd" d="M1420.07 189.01C1420.07 167.052 1419.55 153.202 1418 138H1472C1470.45 151.85 1469.93 165.363 1469.93 189.01V251.99C1469.93 256.344 1469.98 260.697 1470.06 265H1481V303H1472H1418H1409V265H1419.99C1420.04 260.994 1420.07 256.701 1420.07 251.99V189.01Z" fill="url(#animatedGradient)"/>
<path d="M1035.35 192.004C1026.83 157.638 999.216 138 959.465 138C909.132 138 876.609 171.074 876.609 222.753C876.609 248.075 884.869 270.814 899.84 285.542C914.036 300.012 935.202 307.764 959.982 307.764C989.923 307.764 1013.41 297.17 1026.32 278.049C1031.22 270.556 1034.32 263.579 1037.16 252.468L989.665 244.975C988.633 250.918 987.342 253.502 985.019 256.861C979.857 264.096 970.564 268.23 960.498 268.23C939.848 268.23 926.684 250.143 926.684 222.236C926.684 193.813 939.074 177.276 959.982 177.276C969.274 177.276 976.501 180.376 981.664 186.319C985.019 190.195 986.568 193.813 988.891 201.565L1035.35 192.004Z" fill="url(#animatedGradient)"/>
<path d="M1703.19 176.81V210.473H1723.78V193.641H1838V213.034H1859.67V176.81H1703.19ZM1836.36 134C1806.12 140.22 1753.1 143.696 1708.11 144.611C1709.93 148.636 1711.93 155.954 1712.3 160.528C1758.39 159.796 1813.04 156.503 1850.75 148.636L1836.36 134ZM1725.23 161.076C1729.97 167.48 1734.89 176.444 1736.53 182.299L1754.93 174.615C1752.92 168.394 1747.64 159.979 1742.36 153.941L1725.23 161.076ZM1764.58 157.417C1769.32 164.37 1773.69 174.066 1774.96 180.103L1793.55 173.334C1791.91 166.931 1786.99 157.783 1782.07 151.014L1764.58 157.417ZM1810.31 208.643C1820.69 217.059 1832.89 229.499 1838.18 237.915L1853.84 226.206C1848.2 217.608 1835.44 205.899 1824.88 198.215L1810.31 208.643ZM1763.49 198.032C1772.96 202.057 1784.07 208.826 1789.72 213.766L1800.65 201.508C1794.82 196.569 1783.16 190.531 1774.05 186.872L1763.49 198.032ZM1822.33 151.014C1819.23 159.064 1813.04 170.224 1808.12 177.725L1824.51 183.945C1830.16 177.542 1837.08 167.663 1843.82 157.966L1822.33 151.014ZM1812.31 242.489V245.599C1795.19 273.224 1750.01 284.933 1699 288.592C1703.01 292.8 1708.47 301.581 1710.48 306.704C1762.58 300.849 1811.22 286.396 1833.81 250.721L1820.14 241.94L1816.68 242.489H1812.31ZM1753.1 252.917L1736.16 259.503C1760.76 288.409 1801.74 301.947 1852.57 306.338C1855.3 300.666 1860.58 291.519 1865.14 286.945C1815.59 284.384 1773.69 274.139 1753.1 252.917ZM1762.58 227.853C1750.19 243.403 1726.69 256.027 1703.01 263.345C1707.2 266.638 1714.48 273.956 1717.76 277.798C1740.9 268.65 1766.22 253.466 1781.34 234.439L1762.58 227.853ZM1748 201.691V214.498C1748 229.682 1752.74 234.073 1772.78 234.073C1776.97 234.073 1792.64 234.073 1797.01 234.073C1810.67 234.073 1815.77 230.414 1817.59 216.144C1812.49 215.229 1804.84 212.851 1801.01 210.29C1800.29 217.791 1799.19 218.888 1794.64 218.888C1790.81 218.888 1778.24 218.888 1775.51 218.888C1769.32 218.888 1768.04 218.522 1768.04 214.315V201.691H1748ZM1731.24 201.508C1726.87 211.57 1718.67 221.633 1708.29 227.487L1723.23 239.744C1735.07 232.061 1742.72 220.352 1747.64 208.643L1731.24 201.508ZM1757.84 242.489L1742.9 257.491H1817.23V242.489H1757.84Z" fill="url(#animatedGradient)"/>
<path d="M1994.48 203.155H2034.01V222.547H1994.48V203.155ZM1974.62 184.311V241.208H2055.14V184.311H1974.62ZM2016.7 235.72V279.81C2016.7 298.471 2020.35 304.874 2036.92 304.874C2039.84 304.874 2046.21 304.874 2049.49 304.874C2062.79 304.874 2067.89 297.922 2069.53 270.846C2064.07 269.382 2055.32 265.906 2051.32 262.43C2050.77 282.737 2050.22 285.482 2047.13 285.482C2045.67 285.482 2041.48 285.482 2040.39 285.482C2037.83 285.482 2037.47 284.933 2037.47 279.81V235.72H2016.7ZM1986.28 238.647C1984.64 262.43 1981 279.444 1953.67 289.324C1958.23 293.166 1963.87 301.398 1966.06 306.521C1999.21 292.983 2005.41 270.114 2007.59 238.647H1986.28ZM1991.56 139.306V159.247H2035.65V139.306H1991.56ZM1978.63 155.588C1975.17 167.48 1967.34 182.481 1957.86 191.629C1962.78 194.373 1970.43 199.679 1974.8 203.521C1985.01 192.91 1993.93 176.078 1999.94 161.076L1978.63 155.588ZM2019.07 139.306V149.551H2022.9C2029.09 167.663 2039.29 186.872 2051.32 200.228C2055.51 195.837 2064.25 189.434 2069.71 186.323C2058.06 175.346 2046.94 156.869 2041.48 139.306H2019.07ZM1904.67 190.531V206.997H1959.68V190.531H1904.67ZM1905.22 140.037V156.686H1959.14V140.037H1905.22ZM1904.67 215.412V232.061H1959.68V215.412H1904.67ZM1895.92 164.735V182.116H1965.7V164.735H1895.92ZM1914.14 240.842V258.222H1941.29V279.079H1914.14V296.459H1959.87V240.842H1914.14ZM1904.3 240.842V303.777H1922.7V240.842H1904.3Z" fill="url(#animatedGradient)"/>
<path d="M2137.48 307.984C2143.43 295.422 2147.56 283.225 2149.87 271.395C2152.18 259.442 2153.33 245.66 2153.33 230.048V145.16C2188.43 145.16 2221.83 143.574 2253.52 140.403V163.089C2230.81 165.528 2205.01 167.053 2176.1 167.663V230.048C2176.1 244.44 2175.13 257.917 2173.19 270.48C2171.36 283.042 2168.33 295.544 2164.08 307.984H2137.48ZM2098.5 307.984C2109.06 281.884 2115.99 255.905 2119.26 230.048H2143.68C2139.91 260.418 2133.72 286.396 2125.09 307.984H2098.5ZM2100.14 186.323L2143.68 197.117V221.633L2100.14 211.204V186.323ZM2103.78 143.33L2143.31 153.576V178.457L2103.78 168.211V143.33ZM2186.85 177.176C2211.26 177.176 2235.37 176.078 2259.17 173.883V196.203C2251.64 196.934 2245.93 197.422 2242.05 197.666V224.194L2264.09 216.144V239.379L2242.41 247.428C2243.02 258.649 2245.02 269.077 2248.42 278.713C2251.94 288.348 2257.47 298.105 2265 307.984H2236.76C2230.81 296.642 2226.5 285.238 2223.83 273.773C2221.16 262.308 2219.82 250.051 2219.82 237V198.947C2217.27 198.947 2213.57 199.069 2208.71 199.313L2208.71 290.43C2208.71 294.331 2209.16 305.38 2210 307.984H2185.42C2186.41 304.999 2186.82 293.891 2186.85 290.43L2186.85 177.176Z" fill="url(#animatedGradient)"/>
<path fill-rule="evenodd" clip-rule="evenodd" d="M161.73 0C180.206 -3.02834e-06 198.471 3.15753 215.754 9.26641C231.241 14.7401 236.072 33.2106 227.858 47.4254L187.488 117.295C176.04 137.108 147.42 137.108 135.972 117.295L95.6013 47.4255C87.388 33.2106 92.2189 14.7402 107.705 9.26643C124.988 3.15755 143.253 3.02834e-06 161.73 0ZM12.3316 159.178C22.161 135.466 37.4324 114.566 56.7471 98.0704C69.2342 87.4061 87.6582 92.4608 95.8715 106.676L136.242 176.545C147.69 196.358 176.31 196.358 187.758 176.545L228.128 106.676C236.342 92.4608 254.766 87.4061 267.253 98.0704C286.568 114.566 301.839 135.466 311.668 159.178C325.316 192.1 327.71 228.601 318.48 263.021C309.25 297.441 288.912 327.856 260.619 349.549C232.327 371.242 197.662 383 162 383C126.338 383 91.673 371.242 63.3807 349.549C35.0883 327.856 14.75 297.441 5.52007 263.021C-3.70986 228.601 -1.31559 192.1 12.3316 159.178Z" fill="url(#animatedGradient)"/>
</svg>