<?xml version="1.0" encoding="UTF-8"?>
<!DOCTYPE svg PUBLIC "-//W3C//DTD SVG 1.1//EN" "http://www.w3.org/Graphics/SVG/1.1/DTD/svg11.dtd">
<svg xmlns="http://www.w3.org/2000/svg" version="1.1" width="1024px" height="1024px" style="shape-rendering:geometricPrecision; text-rendering:geometricPrecision; image-rendering:optimizeQuality; fill-rule:evenodd; clip-rule:evenodd" xmlns:xlink="http://www.w3.org/1999/xlink">
<g><path style="opacity:0.056" fill="#000000" d="M 292.5,79.5 C 438.834,79.3333 585.167,79.5 731.5,80C 773.094,80.2473 812.094,90.2473 848.5,110C 899.864,142.434 930.031,188.934 939,249.5C 940.861,262.111 942.194,274.777 943,287.5C 943.667,438.167 943.667,588.833 943,739.5C 941.479,774.116 933.479,807.116 919,838.5C 885.794,897.637 835.294,931.471 767.5,940C 757.199,941.33 746.865,942.33 736.5,943C 585.5,943.667 434.5,943.667 283.5,943C 253.118,941.391 223.785,935.057 195.5,924C 131.609,893.407 94.4422,842.907 84,772.5C 82.0659,758.558 80.7326,744.558 80,730.5C 79.3333,584.167 79.3333,437.833 80,291.5C 80.7428,259.454 86.7428,228.454 98,198.5C 128.086,133.125 178.919,94.9586 250.5,84C 264.631,82.288 278.631,80.788 292.5,79.5 Z"/></g>
<g><path style="opacity:0.745" fill="#ececec" d="M 721.5,102.5 C 575.495,102.202 429.495,102.535 283.5,103.5C 288.316,102.674 293.316,102.174 298.5,102C 439.667,101.167 580.667,101.334 721.5,102.5 Z"/></g>
<g><path style="opacity:1" fill="#fefefe" d="M 721.5,102.5 C 774.408,99.9694 821.075,115.469 861.5,149C 898.022,183.891 917.355,226.725 919.5,277.5C 919.652,283.699 920.318,289.699 921.5,295.5C 921.667,442.167 921.5,588.834 921,735.5C 919.869,802.952 891.702,855.452 836.5,893C 803.406,911.858 767.739,921.191 729.5,921C 582.167,921.667 434.833,921.667 287.5,921C 225.068,920.199 174.901,895.366 137,846.5C 112.45,809.318 100.783,768.318 102,723.5C 101.333,581.833 101.333,440.167 102,298.5C 100.897,253.493 112.897,212.493 138,175.5C 174.812,128.512 223.312,104.512 283.5,103.5C 429.495,102.535 575.495,102.202 721.5,102.5 Z"/></g>
<g><path style="opacity:1" fill="#fefed6" d="M 506.5,237.5 C 495.544,236.074 484.544,235.074 473.5,234.5C 459.442,234.206 445.442,234.872 431.5,236.5C 431.918,235.778 432.584,235.278 433.5,235C 455.161,233.108 476.827,233.108 498.5,235C 501.457,235.279 504.123,236.113 506.5,237.5 Z"/></g>
<g><path style="opacity:1" fill="#fefea0" d="M 473.5,234.5 C 474.263,235.268 475.263,235.768 476.5,236C 475.213,237.786 473.713,237.953 472,236.5C 470.394,238.984 468.894,238.984 467.5,236.5C 466.719,237.729 466.219,239.062 466,240.5C 461.303,239.352 459.136,241.352 459.5,246.5C 457.876,246.36 456.71,247.027 456,248.5C 454.989,247.663 453.822,247.33 452.5,247.5C 452.66,249.199 452.494,250.866 452,252.5C 451.174,250.595 450.007,250.261 448.5,251.5C 449.55,253.102 448.883,253.935 446.5,254C 445.781,256.556 444.114,257.723 441.5,257.5C 441.646,259.942 440.813,260.609 439,259.5C 437.438,260.931 435.938,262.431 434.5,264C 433.552,264.483 432.552,264.649 431.5,264.5C 431.241,268.068 429.241,269.401 425.5,268.5C 426.052,270.331 426.052,271.997 425.5,273.5C 424.808,272.975 424.308,272.308 424,271.5C 420.853,276.679 416.353,280.345 410.5,282.5C 409.289,283.274 409.289,284.107 410.5,285C 409.062,285.219 407.729,285.719 406.5,286.5C 407.55,288.102 406.883,288.935 404.5,289C 405.711,289.893 405.711,290.726 404.5,291.5C 403.808,290.975 403.308,290.308 403,289.5C 402.5,290.667 401.667,291.5 400.5,292C 402.645,292.743 402.811,293.576 401,294.5C 400.05,293.978 399.216,293.311 398.5,292.5C 397.289,293.274 397.289,294.107 398.5,295C 397.065,294.689 395.732,294.855 394.5,295.5C 393.614,296.325 393.281,297.325 393.5,298.5C 390.5,298.167 389.167,299.5 389.5,302.5C 384.832,301.839 382.832,303.839 383.5,308.5C 378.537,308.102 377.537,309.769 380.5,313.5C 380.043,314.298 379.376,314.631 378.5,314.5C 373.816,307.134 369.65,299.467 366,291.5C 363.329,277.149 366.829,264.649 376.5,254C 385.929,247.739 396.262,243.406 407.5,241C 415.497,239.387 423.497,237.887 431.5,236.5C 445.442,234.872 459.442,234.206 473.5,234.5 Z"/></g>
<g><path style="opacity:1" fill="#fefea5" d="M 473.5,234.5 C 484.544,235.074 495.544,236.074 506.5,237.5C 507.919,238.451 509.585,238.784 511.5,238.5C 513.026,240.13 515.026,240.963 517.5,241C 514.167,241.667 510.833,242.333 507.5,243C 508.624,243.249 509.624,243.749 510.5,244.5C 509.224,245.645 507.891,245.645 506.5,244.5C 506.5,245.833 506.5,247.167 506.5,248.5C 505.38,247.167 504.047,246.667 502.5,247C 501.782,248.987 500.782,250.821 499.5,252.5C 498.808,251.975 498.308,251.308 498,250.5C 495.129,251.965 493.629,254.298 493.5,257.5C 492.167,257.5 490.833,257.5 489.5,257.5C 489.762,258.978 489.429,260.311 488.5,261.5C 487.914,261.291 487.414,260.957 487,260.5C 486.418,263.668 485.418,264.001 484,261.5C 483.598,262.872 483.098,264.205 482.5,265.5C 480.198,266.802 478.198,268.468 476.5,270.5C 475.264,271.246 473.93,271.579 472.5,271.5C 469.959,273.405 467.959,276.405 466.5,280.5C 465.127,280.343 463.793,280.51 462.5,281C 463.833,282.84 463.666,283.34 462,282.5C 459.987,286.184 456.82,288.017 452.5,288C 453.308,288.308 453.975,288.808 454.5,289.5C 451.113,291.536 447.947,293.869 445,296.5C 443.284,295.448 442.284,296.114 442,298.5C 441.174,296.595 440.007,296.261 438.5,297.5C 440.385,298.197 440.718,299.197 439.5,300.5C 436.938,301.641 434.272,302.474 431.5,303C 432.138,304.707 432.138,306.54 431.5,308.5C 429.516,308.383 427.85,309.05 426.5,310.5C 424.471,309.371 424.137,309.871 425.5,312C 424.207,312.49 422.873,312.657 421.5,312.5C 421.5,313.833 421.5,315.167 421.5,316.5C 416.544,316.914 412.71,319.247 410,323.5C 409.107,322.289 408.274,322.289 407.5,323.5C 408.167,324.167 408.833,324.833 409.5,325.5C 407.922,326.298 406.256,326.798 404.5,327C 406.645,327.743 406.811,328.576 405,329.5C 404.055,329.095 403.388,328.428 403,327.5C 402,330.5 400,332.5 397,333.5C 396.415,335.129 395.581,336.629 394.5,338C 395.515,339.373 395.515,340.54 394.5,341.5C 393.476,339.488 391.976,337.822 390,336.5C 386.969,328.772 383.136,321.439 378.5,314.5C 379.376,314.631 380.043,314.298 380.5,313.5C 377.537,309.769 378.537,308.102 383.5,308.5C 382.832,303.839 384.832,301.839 389.5,302.5C 389.167,299.5 390.5,298.167 393.5,298.5C 393.281,297.325 393.614,296.325 394.5,295.5C 395.732,294.855 397.065,294.689 398.5,295C 397.289,294.107 397.289,293.274 398.5,292.5C 399.216,293.311 400.05,293.978 401,294.5C 402.811,293.576 402.645,292.743 400.5,292C 401.667,291.5 402.5,290.667 403,289.5C 403.308,290.308 403.808,290.975 404.5,291.5C 405.711,290.726 405.711,289.893 404.5,289C 406.883,288.935 407.55,288.102 406.5,286.5C 407.729,285.719 409.062,285.219 410.5,285C 409.289,284.107 409.289,283.274 410.5,282.5C 416.353,280.345 420.853,276.679 424,271.5C 424.308,272.308 424.808,272.975 425.5,273.5C 426.052,271.997 426.052,270.331 425.5,268.5C 429.241,269.401 431.241,268.068 431.5,264.5C 432.552,264.649 433.552,264.483 434.5,264C 435.938,262.431 437.438,260.931 439,259.5C 440.813,260.609 441.646,259.942 441.5,257.5C 444.114,257.723 445.781,256.556 446.5,254C 448.883,253.935 449.55,253.102 448.5,251.5C 450.007,250.261 451.174,250.595 452,252.5C 452.494,250.866 452.66,249.199 452.5,247.5C 453.822,247.33 454.989,247.663 456,248.5C 456.71,247.027 457.876,246.36 459.5,246.5C 459.136,241.352 461.303,239.352 466,240.5C 466.219,239.062 466.719,237.729 467.5,236.5C 468.894,238.984 470.394,238.984 472,236.5C 473.713,237.953 475.213,237.786 476.5,236C 475.263,235.768 474.263,235.268 473.5,234.5 Z"/></g>
<g><path style="opacity:1" fill="#fdfeab" d="M 511.5,238.5 C 522.48,241.114 533.48,243.948 544.5,247C 545.381,247.708 546.047,248.542 546.5,249.5C 546.918,250.222 547.584,250.722 548.5,251C 547.284,252.74 545.618,253.74 543.5,254C 542.624,256.146 541.291,257.979 539.5,259.5C 537.936,256.864 536.603,257.031 535.5,260C 536.866,262.438 536.366,262.938 534,261.5C 532.174,262.01 532.007,262.844 533.5,264C 532.354,264.645 531.354,265.478 530.5,266.5C 529.808,265.975 529.308,265.308 529,264.5C 528.347,266.564 527.18,268.231 525.5,269.5C 524.675,270.386 523.675,270.719 522.5,270.5C 521.167,272.833 519.833,275.167 518.5,277.5C 516.5,277.5 514.5,277.5 512.5,277.5C 511.167,279.833 509.833,282.167 508.5,284.5C 506.801,284.34 505.134,284.506 503.5,285C 504.337,286.011 504.67,287.178 504.5,288.5C 503.167,288.5 501.833,288.5 500.5,288.5C 500.349,291.718 499.516,292.051 498,289.5C 496.706,290.854 496.54,292.188 497.5,293.5C 497,293.833 496.5,294.167 496,294.5C 487.934,296.681 479.768,298.681 471.5,300.5C 469.412,300.62 468.078,301.62 467.5,303.5C 461.949,303.928 456.949,305.595 452.5,308.5C 444.998,310.667 439.665,315.334 436.5,322.5C 434.935,324.509 433.935,326.843 433.5,329.5C 432.71,330.609 432.21,331.942 432,333.5C 431.667,332.833 431.333,332.167 431,331.5C 430.076,335.541 430.576,339.374 432.5,343C 431.978,343.95 431.311,344.784 430.5,345.5C 431.435,348.06 430.601,348.726 428,347.5C 427.517,348.448 427.351,349.448 427.5,350.5C 425.077,350.424 423.244,351.424 422,353.5C 421.127,353.265 420.293,352.931 419.5,352.5C 417.979,355.054 416.646,357.721 415.5,360.5C 414.808,359.975 414.308,359.308 414,358.5C 413.274,361.288 411.44,362.788 408.5,363C 409.494,364.329 410.494,365.662 411.5,367C 411.164,368.03 410.497,368.53 409.5,368.5C 404.071,359.738 399.071,350.738 394.5,341.5C 395.515,340.54 395.515,339.373 394.5,338C 395.581,336.629 396.415,335.129 397,333.5C 400,332.5 402,330.5 403,327.5C 403.388,328.428 404.055,329.095 405,329.5C 406.811,328.576 406.645,327.743 404.5,327C 406.256,326.798 407.922,326.298 409.5,325.5C 408.833,324.833 408.167,324.167 407.5,323.5C 408.274,322.289 409.107,322.289 410,323.5C 412.71,319.247 416.544,316.914 421.5,316.5C 421.5,315.167 421.5,313.833 421.5,312.5C 422.873,312.657 424.207,312.49 425.5,312C 424.137,309.871 424.471,309.371 426.5,310.5C 427.85,309.05 429.516,308.383 431.5,308.5C 432.138,306.54 432.138,304.707 431.5,303C 434.272,302.474 436.938,301.641 439.5,300.5C 440.718,299.197 440.385,298.197 438.5,297.5C 440.007,296.261 441.174,296.595 442,298.5C 442.284,296.114 443.284,295.448 445,296.5C 447.947,293.869 451.113,291.536 454.5,289.5C 453.975,288.808 453.308,288.308 452.5,288C 456.82,288.017 459.987,286.184 462,282.5C 463.666,283.34 463.833,282.84 462.5,281C 463.793,280.51 465.127,280.343 466.5,280.5C 467.959,276.405 469.959,273.405 472.5,271.5C 473.93,271.579 475.264,271.246 476.5,270.5C 478.198,268.468 480.198,266.802 482.5,265.5C 483.098,264.205 483.598,262.872 484,261.5C 485.418,264.001 486.418,263.668 487,260.5C 487.414,260.957 487.914,261.291 488.5,261.5C 489.429,260.311 489.762,258.978 489.5,257.5C 490.833,257.5 492.167,257.5 493.5,257.5C 493.629,254.298 495.129,251.965 498,250.5C 498.308,251.308 498.808,251.975 499.5,252.5C 500.782,250.821 501.782,248.987 502.5,247C 504.047,246.667 505.38,247.167 506.5,248.5C 506.5,247.167 506.5,245.833 506.5,244.5C 507.891,245.645 509.224,245.645 510.5,244.5C 509.624,243.749 508.624,243.249 507.5,243C 510.833,242.333 514.167,241.667 517.5,241C 515.026,240.963 513.026,240.13 511.5,238.5 Z"/></g>
<g><path style="opacity:1" fill="#fcfdb1" d="M 546.5,249.5 C 557.871,253.385 564.371,261.385 566,273.5C 566.667,278.833 566.667,284.167 566,289.5C 564.835,294.836 563.002,299.836 560.5,304.5C 559.167,304.5 557.833,304.5 556.5,304.5C 554.485,303.076 552.152,302.41 549.5,302.5C 522.083,296.925 494.75,297.259 467.5,303.5C 468.078,301.62 469.412,300.62 471.5,300.5C 479.768,298.681 487.934,296.681 496,294.5C 496.5,294.167 497,293.833 497.5,293.5C 496.54,292.188 496.706,290.854 498,289.5C 499.516,292.051 500.349,291.718 500.5,288.5C 501.833,288.5 503.167,288.5 504.5,288.5C 504.67,287.178 504.337,286.011 503.5,285C 505.134,284.506 506.801,284.34 508.5,284.5C 509.833,282.167 511.167,279.833 512.5,277.5C 514.5,277.5 516.5,277.5 518.5,277.5C 519.833,275.167 521.167,272.833 522.5,270.5C 523.675,270.719 524.675,270.386 525.5,269.5C 527.18,268.231 528.347,266.564 529,264.5C 529.308,265.308 529.808,265.975 530.5,266.5C 531.354,265.478 532.354,264.645 533.5,264C 532.007,262.844 532.174,262.01 534,261.5C 536.366,262.938 536.866,262.438 535.5,260C 536.603,257.031 537.936,256.864 539.5,259.5C 541.291,257.979 542.624,256.146 543.5,254C 545.618,253.74 547.284,252.74 548.5,251C 547.584,250.722 546.918,250.222 546.5,249.5 Z"/></g>
<g><path style="opacity:1" fill="#f6fdf6" d="M 645.5,309.5 C 645.631,308.761 645.464,308.094 645,307.5C 641.906,307.793 640.406,309.459 640.5,312.5C 636.273,312.651 633.273,314.651 631.5,318.5C 629.471,317.371 629.137,317.871 630.5,320C 629.207,320.49 627.873,320.657 626.5,320.5C 626.5,321.5 626.5,322.5 626.5,323.5C 624.328,324.801 621.995,325.801 619.5,326.5C 619.241,330.068 617.241,331.401 613.5,330.5C 613.719,331.675 613.386,332.675 612.5,333.5C 610.697,334.137 609.364,335.303 608.5,337C 606.691,339.238 604.358,340.405 601.5,340.5C 601.5,341.5 601.5,342.5 601.5,343.5C 600.448,343.351 599.448,343.517 598.5,344C 594.818,349.199 590.151,352.366 584.5,353.5C 583.702,353.043 583.369,352.376 583.5,351.5C 585.396,347.703 586.729,343.703 587.5,339.5C 587.833,339.5 588.167,339.5 588.5,339.5C 588.338,341.527 588.505,343.527 589,345.5C 591.105,337.77 590.938,330.104 588.5,322.5C 589.557,322.094 590.891,322.094 592.5,322.5C 592.281,321.325 592.614,320.325 593.5,319.5C 594.695,317.703 596.362,316.703 598.5,316.5C 598.351,315.448 598.517,314.448 599,313.5C 601.138,313.852 603.304,313.352 605.5,312C 606.337,310.989 606.67,309.822 606.5,308.5C 610.366,307.136 613.533,304.803 616,301.5C 616.414,301.957 616.914,302.291 617.5,302.5C 618.623,298.41 621.29,296.243 625.5,296C 623.299,295.223 623.299,294.056 625.5,292.5C 626.524,293.853 627.857,294.52 629.5,294.5C 630.904,290.991 632.571,287.658 634.5,284.5C 638.047,283.141 641.214,281.141 644,278.5C 644.308,279.308 644.808,279.975 645.5,280.5C 646.711,279.726 646.711,278.893 645.5,278C 646.892,275.772 648.892,274.606 651.5,274.5C 651.281,273.325 651.614,272.325 652.5,271.5C 657.284,285.461 654.951,298.128 645.5,309.5 Z"/></g>
<g><path style="opacity:0.4" fill="#979797" d="M 919.5,277.5 C 921.057,283.261 921.724,289.261 921.5,295.5C 920.318,289.699 919.652,283.699 919.5,277.5 Z"/></g>
<g><path style="opacity:1" fill="#3a3a3a" d="M 549.5,302.5 C 551.515,303.924 553.848,304.59 556.5,304.5C 567.514,305.829 576.681,310.829 584,319.5C 584.791,320.745 585.291,322.078 585.5,323.5C 586.969,328.716 587.635,334.05 587.5,339.5C 586.729,343.703 585.396,347.703 583.5,351.5C 577.664,360.5 572.331,369.833 567.5,379.5C 558.468,394.232 549.801,409.232 541.5,424.5C 538.759,428.97 535.759,433.304 532.5,437.5C 528.246,439.796 523.912,441.796 519.5,443.5C 512.132,443.683 504.799,443.35 497.5,442.5C 495.95,441.559 494.284,440.893 492.5,440.5C 487.008,435.681 482.675,430.014 479.5,423.5C 467.722,402.265 455.722,381.265 443.5,360.5C 441.529,355.895 439.029,351.562 436,347.5C 435.338,345.187 434.838,342.854 434.5,340.5C 434.178,334.346 434.845,328.346 436.5,322.5C 439.665,315.334 444.998,310.667 452.5,308.5C 457.707,307.252 462.707,305.586 467.5,303.5C 494.75,297.259 522.083,296.925 549.5,302.5 Z"/></g>
<g><path style="opacity:1" fill="#a1a17c" d="M 549.5,302.5 C 552.152,302.41 554.485,303.076 556.5,304.5C 553.848,304.59 551.515,303.924 549.5,302.5 Z"/></g>
<g><path style="opacity:1" fill="#9d9d73" d="M 467.5,303.5 C 462.707,305.586 457.707,307.252 452.5,308.5C 456.949,305.595 461.949,303.928 467.5,303.5 Z"/></g>
<g><path style="opacity:1" fill="#f1fcef" d="M 645.5,309.5 C 634.567,329.864 623.233,350.031 611.5,370C 612.056,370.383 612.389,370.883 612.5,371.5C 611.833,371.5 611.167,371.5 610.5,371.5C 610.389,370.883 610.056,370.383 609.5,370C 593.227,364.111 579.227,367.278 567.5,379.5C 572.331,369.833 577.664,360.5 583.5,351.5C 583.369,352.376 583.702,353.043 584.5,353.5C 590.151,352.366 594.818,349.199 598.5,344C 599.448,343.517 600.448,343.351 601.5,343.5C 601.5,342.5 601.5,341.5 601.5,340.5C 604.358,340.405 606.691,339.238 608.5,337C 609.364,335.303 610.697,334.137 612.5,333.5C 613.386,332.675 613.719,331.675 613.5,330.5C 617.241,331.401 619.241,330.068 619.5,326.5C 621.995,325.801 624.328,324.801 626.5,323.5C 626.5,322.5 626.5,321.5 626.5,320.5C 627.873,320.657 629.207,320.49 630.5,320C 629.137,317.871 629.471,317.371 631.5,318.5C 633.273,314.651 636.273,312.651 640.5,312.5C 640.406,309.459 641.906,307.793 645,307.5C 645.464,308.094 645.631,308.761 645.5,309.5 Z"/></g>
<g><path style="opacity:1" fill="#999b99" d="M 585.5,323.5 C 587.13,325.026 587.963,327.026 588,329.5C 588.498,332.817 588.665,336.15 588.5,339.5C 588.167,339.5 587.833,339.5 587.5,339.5C 587.635,334.05 586.969,328.716 585.5,323.5 Z"/></g>
<g><path style="opacity:1" fill="#79795e" d="M 436.5,322.5 C 434.845,328.346 434.178,334.346 434.5,340.5C 433.518,337.038 433.185,333.371 433.5,329.5C 433.935,326.843 434.935,324.509 436.5,322.5 Z"/></g>
<g><path style="opacity:1" fill="#fcfdb1" d="M 433.5,329.5 C 433.185,333.371 433.518,337.038 434.5,340.5C 434.838,342.854 435.338,345.187 436,347.5C 439.029,351.562 441.529,355.895 443.5,360.5C 443.344,363.066 443.678,365.566 444.5,368C 447.199,371.442 448.699,375.275 449,379.5C 447.989,378.663 446.822,378.33 445.5,378.5C 445.67,379.822 445.337,380.989 444.5,382C 442.564,382.813 440.564,383.313 438.5,383.5C 438.5,384.5 438.5,385.5 438.5,386.5C 437.5,386.5 436.5,386.5 435.5,386.5C 435.703,388.39 435.037,389.89 433.5,391C 430.759,392.501 428.092,394.001 425.5,395.5C 419.956,386.765 414.623,377.765 409.5,368.5C 410.497,368.53 411.164,368.03 411.5,367C 410.494,365.662 409.494,364.329 408.5,363C 411.44,362.788 413.274,361.288 414,358.5C 414.308,359.308 414.808,359.975 415.5,360.5C 416.646,357.721 417.979,355.054 419.5,352.5C 420.293,352.931 421.127,353.265 422,353.5C 423.244,351.424 425.077,350.424 427.5,350.5C 427.351,349.448 427.517,348.448 428,347.5C 430.601,348.726 431.435,348.06 430.5,345.5C 431.311,344.784 431.978,343.95 432.5,343C 430.576,339.374 430.076,335.541 431,331.5C 431.333,332.167 431.667,332.833 432,333.5C 432.21,331.942 432.71,330.609 433.5,329.5 Z"/></g>
<g><path style="opacity:1" fill="#ecfbbf" d="M 610.5,371.5 C 607.676,378.488 603.843,384.821 599,390.5C 596.954,396.925 593.621,402.591 589,407.5C 588.517,408.448 588.351,409.448 588.5,410.5C 587.833,411.167 587.167,411.833 586.5,412.5C 583.334,415.441 579.668,417.941 575.5,420C 565.306,425.566 554.64,426.733 543.5,423.5C 542.817,423.863 542.15,424.196 541.5,424.5C 549.801,409.232 558.468,394.232 567.5,379.5C 579.227,367.278 593.227,364.111 609.5,370C 610.056,370.383 610.389,370.883 610.5,371.5 Z"/></g>
<g><path style="opacity:1" fill="#e0fbdd" d="M 708.5,377.5 C 707.417,377.461 706.417,377.127 705.5,376.5C 704.167,378.167 702.833,379.833 701.5,381.5C 700.914,381.291 700.414,380.957 700,380.5C 700.379,382.075 700.212,383.575 699.5,385C 698.258,385.311 697.258,384.811 696.5,383.5C 695.289,384.274 695.289,385.107 696.5,386C 695.552,386.483 694.552,386.649 693.5,386.5C 693.5,387.5 693.5,388.5 693.5,389.5C 691.801,389.34 690.134,389.506 688.5,390C 688.957,390.414 689.291,390.914 689.5,391.5C 687.042,392.124 685.376,393.624 684.5,396C 683.065,395.689 681.732,395.855 680.5,396.5C 679.614,397.325 679.281,398.325 679.5,399.5C 676.306,399.176 675.306,400.342 676.5,403C 674.833,403.333 673.167,403.667 671.5,404C 671.957,404.414 672.291,404.914 672.5,405.5C 671.271,406.281 669.938,406.781 668.5,407C 668.957,407.414 669.291,407.914 669.5,408.5C 666.316,408.787 664.316,410.453 663.5,413.5C 661.995,410.869 661.329,411.203 661.5,414.5C 660.5,414.5 659.5,414.5 658.5,414.5C 658.715,416.179 658.048,417.179 656.5,417.5C 653.222,413.209 649.888,408.876 646.5,404.5C 645.148,403.476 643.815,402.476 642.5,401.5C 642.167,400.833 641.833,400.167 641.5,399.5C 642.5,399.5 643.5,399.5 644.5,399.5C 649.941,384.225 660.274,373.725 675.5,368C 688.396,365.25 699.396,368.417 708.5,377.5 Z"/></g>
<g><path style="opacity:1" fill="#f9fbb7" d="M 443.5,360.5 C 455.722,381.265 467.722,402.265 479.5,423.5C 464.168,426.922 450.168,424.255 437.5,415.5C 436.136,413.809 434.803,412.142 433.5,410.5C 430.068,405.972 427.401,400.972 425.5,395.5C 428.092,394.001 430.759,392.501 433.5,391C 435.037,389.89 435.703,388.39 435.5,386.5C 436.5,386.5 437.5,386.5 438.5,386.5C 438.5,385.5 438.5,384.5 438.5,383.5C 440.564,383.313 442.564,382.813 444.5,382C 445.337,380.989 445.67,379.822 445.5,378.5C 446.822,378.33 447.989,378.663 449,379.5C 448.699,375.275 447.199,371.442 444.5,368C 443.678,365.566 443.344,363.066 443.5,360.5 Z"/></g>
<g><path style="opacity:1" fill="#fefeab" d="M 373.5,391.5 C 373.367,394.896 372.367,395.229 370.5,392.5C 369.643,393.736 368.977,395.069 368.5,396.5C 365.662,399.42 362.328,401.586 358.5,403C 359.308,403.308 359.975,403.808 360.5,404.5C 356.792,405.435 353.459,407.602 350.5,411C 350.957,411.414 351.291,411.914 351.5,412.5C 349.392,413.944 347.059,414.61 344.5,414.5C 344.5,415.5 344.5,416.5 344.5,417.5C 341.05,416.756 339.384,418.09 339.5,421.5C 337.833,421.5 336.167,421.5 334.5,421.5C 334.719,422.675 334.386,423.675 333.5,424.5C 329.754,426.566 326.254,428.9 323,431.5C 321.878,433.42 321.044,435.42 320.5,437.5C 318.409,437.318 316.409,437.652 314.5,438.5C 313.614,439.325 313.281,440.325 313.5,441.5C 312.5,441.5 311.5,441.5 310.5,441.5C 310.587,444.598 310.087,444.932 309,442.5C 307.274,444.591 306.107,446.924 305.5,449.5C 303.42,450.044 301.42,450.878 299.5,452C 291.864,457.729 284.53,463.895 277.5,470.5C 276.549,469.674 275.549,469.508 274.5,470C 275.833,471 275.833,472 274.5,473C 271.99,473.376 269.657,474.21 267.5,475.5C 268.376,476.251 269.376,476.751 270.5,477C 267.575,478.443 264.575,479.609 261.5,480.5C 261.833,483.5 260.5,484.833 257.5,484.5C 256.74,488.89 254.073,491.223 249.5,491.5C 249.5,492.5 249.5,493.5 249.5,494.5C 247.774,494.185 246.107,494.019 244.5,494C 244.957,494.414 245.291,494.914 245.5,495.5C 242.923,499.432 241.423,503.766 241,508.5C 240.606,502.755 241.106,497.089 242.5,491.5C 254.639,445.747 278.639,407.247 314.5,376C 322.765,368.673 332.431,366.006 343.5,368C 353.998,370.832 362.832,376.332 370,384.5C 371.193,386.886 372.36,389.22 373.5,391.5 Z"/></g>
<g><path style="opacity:1" fill="#fbfccb" d="M 610.5,371.5 C 611.167,371.5 611.833,371.5 612.5,371.5C 616.797,375.523 621.464,379.356 626.5,383C 631.884,388.362 636.884,393.862 641.5,399.5C 641.833,400.167 642.167,400.833 642.5,401.5C 639.943,405.608 637.61,409.941 635.5,414.5C 631.945,411.361 628.279,408.194 624.5,405C 615.356,400.684 606.022,400.351 596.5,404C 593.669,406.001 591.003,408.167 588.5,410.5C 588.351,409.448 588.517,408.448 589,407.5C 593.621,402.591 596.954,396.925 599,390.5C 603.843,384.821 607.676,378.488 610.5,371.5 Z"/></g>
<g><path style="opacity:1" fill="#d9fad7" d="M 708.5,377.5 C 713.5,381.833 718.167,386.5 722.5,391.5C 720.23,394.092 717.563,396.425 714.5,398.5C 715.025,399.192 715.692,399.692 716.5,400C 714.793,400.195 713.126,400.195 711.5,400C 712.711,400.893 712.711,401.726 711.5,402.5C 707.036,405.57 702.369,408.403 697.5,411C 696.782,412.987 695.782,414.821 694.5,416.5C 692.995,413.869 692.329,414.203 692.5,417.5C 691.5,417.5 690.5,417.5 689.5,417.5C 688.705,421.123 686.372,423.29 682.5,424C 683.451,424.718 683.617,425.551 683,426.5C 681.644,425.62 680.144,425.286 678.5,425.5C 678.271,427.433 677.438,429.1 676,430.5C 672.599,432.074 670.099,434.408 668.5,437.5C 664.925,430.589 660.925,423.922 656.5,417.5C 658.048,417.179 658.715,416.179 658.5,414.5C 659.5,414.5 660.5,414.5 661.5,414.5C 661.329,411.203 661.995,410.869 663.5,413.5C 664.316,410.453 666.316,408.787 669.5,408.5C 669.291,407.914 668.957,407.414 668.5,407C 669.938,406.781 671.271,406.281 672.5,405.5C 672.291,404.914 671.957,404.414 671.5,404C 673.167,403.667 674.833,403.333 676.5,403C 675.306,400.342 676.306,399.176 679.5,399.5C 679.281,398.325 679.614,397.325 680.5,396.5C 681.732,395.855 683.065,395.689 684.5,396C 685.376,393.624 687.042,392.124 689.5,391.5C 689.291,390.914 688.957,390.414 688.5,390C 690.134,389.506 691.801,389.34 693.5,389.5C 693.5,388.5 693.5,387.5 693.5,386.5C 694.552,386.649 695.552,386.483 696.5,386C 695.289,385.107 695.289,384.274 696.5,383.5C 697.258,384.811 698.258,385.311 699.5,385C 700.212,383.575 700.379,382.075 700,380.5C 700.414,380.957 700.914,381.291 701.5,381.5C 702.833,379.833 704.167,378.167 705.5,376.5C 706.417,377.127 707.417,377.461 708.5,377.5 Z"/></g>
<g><path style="opacity:1" fill="#fdfeb2" d="M 373.5,391.5 C 377.977,399.052 382.31,406.719 386.5,414.5C 381.109,420.551 375.776,426.551 370.5,432.5C 369.178,432.33 368.011,432.663 367,433.5C 361.636,441.521 356.303,449.521 351,457.5C 350.275,455.842 349.108,455.342 347.5,456C 348.022,456.561 348.355,457.228 348.5,458C 347.293,459.3 346.626,460.8 346.5,462.5C 344.801,462.34 343.134,462.506 341.5,463C 340.624,464.585 339.291,465.585 337.5,466C 338.308,466.308 338.975,466.808 339.5,467.5C 337.711,468.877 335.711,469.877 333.5,470.5C 332.614,471.325 332.281,472.325 332.5,473.5C 331.5,473.5 330.5,473.5 329.5,473.5C 329.719,474.675 329.386,475.675 328.5,476.5C 327.167,476.5 325.833,476.5 324.5,476.5C 322.505,479.168 319.838,480.835 316.5,481.5C 317.5,482.333 318.5,483.167 319.5,484C 317.512,484.18 315.512,484.014 313.5,483.5C 313.756,485.912 312.756,487.579 310.5,488.5C 311.506,489.396 311.506,490.062 310.5,490.5C 309.749,489.624 309.249,488.624 309,487.5C 308.676,490.988 306.842,492.988 303.5,493.5C 303.67,494.822 303.337,495.989 302.5,497C 300.564,497.813 298.564,498.313 296.5,498.5C 296.785,500.288 296.452,501.955 295.5,503.5C 293.568,504.145 292.401,505.479 292,507.5C 291,508.833 290,508.833 289,507.5C 287.324,508.061 285.991,509.061 285,510.5C 284.577,509.044 283.744,508.544 282.5,509C 281.788,510.425 281.621,511.925 282,513.5C 280.921,515.394 279.587,515.727 278,514.5C 277.517,515.448 277.351,516.448 277.5,517.5C 275.167,518.833 272.833,520.167 270.5,521.5C 270.5,522.5 270.5,523.5 270.5,524.5C 268.508,524.328 266.842,524.995 265.5,526.5C 264.914,526.291 264.414,525.957 264,525.5C 263.696,527.441 262.863,529.107 261.5,530.5C 257.325,531.491 253.658,533.325 250.5,536C 249.138,538.034 248.138,540.201 247.5,542.5C 246.127,542.343 244.793,542.51 243.5,543C 242.318,545.261 240.651,547.095 238.5,548.5C 237.914,548.291 237.414,547.957 237,547.5C 236.827,551.541 236.327,555.541 235.5,559.5C 234.502,550.19 234.168,540.857 234.5,531.5C 235.727,525.241 236.56,518.907 237,512.5C 238.978,505.968 240.311,499.302 241,492.5C 241.383,491.944 241.883,491.611 242.5,491.5C 241.106,497.089 240.606,502.755 241,508.5C 241.423,503.766 242.923,499.432 245.5,495.5C 245.291,494.914 244.957,494.414 244.5,494C 246.107,494.019 247.774,494.185 249.5,494.5C 249.5,493.5 249.5,492.5 249.5,491.5C 254.073,491.223 256.74,488.89 257.5,484.5C 260.5,484.833 261.833,483.5 261.5,480.5C 264.575,479.609 267.575,478.443 270.5,477C 269.376,476.751 268.376,476.251 267.5,475.5C 269.657,474.21 271.99,473.376 274.5,473C 275.833,472 275.833,471 274.5,470C 275.549,469.508 276.549,469.674 277.5,470.5C 284.53,463.895 291.864,457.729 299.5,452C 301.42,450.878 303.42,450.044 305.5,449.5C 306.107,446.924 307.274,444.591 309,442.5C 310.087,444.932 310.587,444.598 310.5,441.5C 311.5,441.5 312.5,441.5 313.5,441.5C 313.281,440.325 313.614,439.325 314.5,438.5C 316.409,437.652 318.409,437.318 320.5,437.5C 321.044,435.42 321.878,433.42 323,431.5C 326.254,428.9 329.754,426.566 333.5,424.5C 334.386,423.675 334.719,422.675 334.5,421.5C 336.167,421.5 337.833,421.5 339.5,421.5C 339.384,418.09 341.05,416.756 344.5,417.5C 344.5,416.5 344.5,415.5 344.5,414.5C 347.059,414.61 349.392,413.944 351.5,412.5C 351.291,411.914 350.957,411.414 350.5,411C 353.459,407.602 356.792,405.435 360.5,404.5C 359.975,403.808 359.308,403.308 358.5,403C 362.328,401.586 365.662,399.42 368.5,396.5C 368.977,395.069 369.643,393.736 370.5,392.5C 372.367,395.229 373.367,394.896 373.5,391.5 Z"/></g>
<g><path style="opacity:1" fill="#d4fad1" d="M 722.5,391.5 C 729.103,397.374 734.77,404.041 739.5,411.5C 737.561,409.662 735.228,409.495 732.5,411C 732.957,411.414 733.291,411.914 733.5,412.5C 731.51,414.656 729.343,416.656 727,418.5C 725.187,417.391 724.354,418.058 724.5,420.5C 723.5,420.5 722.5,420.5 721.5,420.5C 721.567,423.766 719.901,425.266 716.5,425C 717.833,426 717.833,427 716.5,428C 712.113,430.33 707.779,432.664 703.5,435C 703.957,435.414 704.291,435.914 704.5,436.5C 702.018,437.574 699.684,438.908 697.5,440.5C 698.025,441.192 698.692,441.692 699.5,442C 697.939,442.318 696.772,443.151 696,444.5C 694.484,441.949 693.651,442.282 693.5,445.5C 692.127,445.343 690.793,445.51 689.5,446C 690.833,447 690.833,448 689.5,449C 687.58,450.122 685.58,450.956 683.5,451.5C 683.338,453.824 682.172,455.491 680,456.5C 679.617,455.944 679.117,455.611 678.5,455.5C 674.694,449.711 671.36,443.711 668.5,437.5C 670.099,434.408 672.599,432.074 676,430.5C 677.438,429.1 678.271,427.433 678.5,425.5C 680.144,425.286 681.644,425.62 683,426.5C 683.617,425.551 683.451,424.718 682.5,424C 686.372,423.29 688.705,421.123 689.5,417.5C 690.5,417.5 691.5,417.5 692.5,417.5C 692.329,414.203 692.995,413.869 694.5,416.5C 695.782,414.821 696.782,412.987 697.5,411C 702.369,408.403 707.036,405.57 711.5,402.5C 712.711,401.726 712.711,400.893 711.5,400C 713.126,400.195 714.793,400.195 716.5,400C 715.692,399.692 715.025,399.192 714.5,398.5C 717.563,396.425 720.23,394.092 722.5,391.5 Z"/></g>
<g><path style="opacity:1" fill="#757575" d="M 416.5,401.5 C 413.15,401.335 409.817,401.502 406.5,402C 404.559,403.903 402.226,404.736 399.5,404.5C 400.975,402.59 402.975,401.424 405.5,401C 409.358,400.19 413.024,400.357 416.5,401.5 Z"/></g>
<g><path style="opacity:1" fill="#3a3a3a" d="M 416.5,401.5 C 423.087,402.628 428.754,405.628 433.5,410.5C 434.803,412.142 436.136,413.809 437.5,415.5C 450.202,437.189 462.869,458.855 475.5,480.5C 478.053,485.938 480.887,491.271 484,496.5C 485.719,499.288 487.885,501.621 490.5,503.5C 492.484,506.164 495.151,507.831 498.5,508.5C 502.069,510.726 506.069,511.726 510.5,511.5C 513.814,511.657 516.814,510.991 519.5,509.5C 524.272,507.948 528.606,505.614 532.5,502.5C 533.794,501.71 534.961,500.71 536,499.5C 552.868,470.417 569.702,441.417 586.5,412.5C 587.167,411.833 587.833,411.167 588.5,410.5C 591.003,408.167 593.669,406.001 596.5,404C 606.022,400.351 615.356,400.684 624.5,405C 628.279,408.194 631.945,411.361 635.5,414.5C 656.739,436.374 672.073,461.707 681.5,490.5C 689.197,515.222 691.53,540.556 688.5,566.5C 686.933,575.891 684.933,585.224 682.5,594.5C 681.883,594.611 681.383,594.944 681,595.5C 680.56,597.866 680.06,600.199 679.5,602.5C 678.962,604.117 678.629,605.784 678.5,607.5C 676.755,609.033 675.755,611.033 675.5,613.5C 675.5,613.833 675.5,614.167 675.5,614.5C 673.755,616.033 672.755,618.033 672.5,620.5C 663.902,637.376 653.569,653.043 641.5,667.5C 629.413,678.914 616.413,689.247 602.5,698.5C 582.765,709.553 561.765,717.22 539.5,721.5C 524.9,723.248 510.233,723.915 495.5,723.5C 489.72,721.957 483.72,720.957 477.5,720.5C 475.139,720.326 472.806,719.993 470.5,719.5C 459.931,716.017 449.264,712.517 438.5,709C 430.432,703.967 422.098,699.467 413.5,695.5C 408.998,691.223 403.998,687.389 398.5,684C 390.965,676.298 383.298,668.798 375.5,661.5C 369.522,653.341 363.689,645.008 358,636.5C 353.599,628.127 349.266,619.794 345,611.5C 344.549,606.993 343.049,602.993 340.5,599.5C 337.102,585.761 334.602,571.761 333,557.5C 332.583,544.495 332.75,531.495 333.5,518.5C 335.663,511.364 337.329,504.031 338.5,496.5C 339.455,494.254 340.122,491.921 340.5,489.5C 342.245,487.967 343.245,485.967 343.5,483.5C 344.038,481.883 344.371,480.216 344.5,478.5C 346.245,476.967 347.245,474.967 347.5,472.5C 353.466,458.198 361.133,444.864 370.5,432.5C 375.776,426.551 381.109,420.551 386.5,414.5C 390.567,410.76 394.9,407.426 399.5,404.5C 402.226,404.736 404.559,403.903 406.5,402C 409.817,401.502 413.15,401.335 416.5,401.5 Z"/></g>
<g><path style="opacity:1" fill="#cff9cb" d="M 739.5,411.5 C 744.27,416.607 748.27,422.273 751.5,428.5C 749.345,427.448 749.012,428.114 750.5,430.5C 748.244,431.421 747.244,433.088 747.5,435.5C 742.299,437.514 738.632,441.181 736.5,446.5C 733.751,446.336 731.084,447.17 728.5,449C 727.663,450.011 727.33,451.178 727.5,452.5C 723.78,453.408 720.78,455.408 718.5,458.5C 712.676,460.739 708.009,464.406 704.5,469.5C 701.641,470.922 698.975,472.589 696.5,474.5C 696.709,475.086 697.043,475.586 697.5,476C 694.103,477.323 691.103,479.157 688.5,481.5C 685.737,472.636 682.403,463.969 678.5,455.5C 679.117,455.611 679.617,455.944 680,456.5C 682.172,455.491 683.338,453.824 683.5,451.5C 685.58,450.956 687.58,450.122 689.5,449C 690.833,448 690.833,447 689.5,446C 690.793,445.51 692.127,445.343 693.5,445.5C 693.651,442.282 694.484,441.949 696,444.5C 696.772,443.151 697.939,442.318 699.5,442C 698.692,441.692 698.025,441.192 697.5,440.5C 699.684,438.908 702.018,437.574 704.5,436.5C 704.291,435.914 703.957,435.414 703.5,435C 707.779,432.664 712.113,430.33 716.5,428C 717.833,427 717.833,426 716.5,425C 719.901,425.266 721.567,423.766 721.5,420.5C 722.5,420.5 723.5,420.5 724.5,420.5C 724.354,418.058 725.187,417.391 727,418.5C 729.343,416.656 731.51,414.656 733.5,412.5C 733.291,411.914 732.957,411.414 732.5,411C 735.228,409.495 737.561,409.662 739.5,411.5 Z"/></g>
<g><path style="opacity:1" fill="#fcfdcc" d="M 586.5,412.5 C 569.702,441.417 552.868,470.417 536,499.5C 534.961,500.71 533.794,501.71 532.5,502.5C 528.668,501.182 525.501,498.848 523,495.5C 519.155,489.139 515.322,482.806 511.5,476.5C 511.5,475.833 511.5,475.167 511.5,474.5C 518.739,462.362 525.739,450.029 532.5,437.5C 535.759,433.304 538.759,428.97 541.5,424.5C 542.15,424.196 542.817,423.863 543.5,423.5C 554.64,426.733 565.306,425.566 575.5,420C 579.668,417.941 583.334,415.441 586.5,412.5 Z"/></g>
<g><path style="opacity:1" fill="#d5f8bd" d="M 642.5,401.5 C 643.815,402.476 645.148,403.476 646.5,404.5C 649.888,408.876 653.222,413.209 656.5,417.5C 660.925,423.922 664.925,430.589 668.5,437.5C 671.36,443.711 674.694,449.711 678.5,455.5C 682.403,463.969 685.737,472.636 688.5,481.5C 687.416,479.185 685.749,477.352 683.5,476C 683.5,474 683.5,472 683.5,470C 681.7,469.764 680.034,470.264 678.5,471.5C 678.829,475.053 679.829,478.719 681.5,482.5C 680.787,485.096 680.787,487.763 681.5,490.5C 672.073,461.707 656.739,436.374 635.5,414.5C 637.61,409.941 639.943,405.608 642.5,401.5 Z"/></g>
<g><path style="opacity:1" fill="#c9f9c5" d="M 751.5,428.5 C 755.655,433.661 758.988,439.328 761.5,445.5C 759.402,444.086 758.402,444.752 758.5,447.5C 755.277,448.445 752.277,449.945 749.5,452C 748.809,453.067 748.309,454.234 748,455.5C 747.692,454.692 747.192,454.025 746.5,453.5C 743.886,455.512 742.219,458.178 741.5,461.5C 739.633,458.771 738.633,459.104 738.5,462.5C 737.5,462.5 736.5,462.5 735.5,462.5C 735.587,465.598 735.087,465.932 734,463.5C 731.317,464.893 731.15,466.226 733.5,467.5C 732.295,469.138 730.962,469.471 729.5,468.5C 726.596,471.423 723.596,474.09 720.5,476.5C 719.311,477.429 717.978,477.762 716.5,477.5C 714.911,480.453 713.244,483.453 711.5,486.5C 710.749,485.624 710.249,484.624 710,483.5C 708.989,484.337 707.822,484.67 706.5,484.5C 705.116,487.595 703.45,490.595 701.5,493.5C 698.26,494.627 695.26,495.96 692.5,497.5C 691.749,492.005 690.416,486.672 688.5,481.5C 691.103,479.157 694.103,477.323 697.5,476C 697.043,475.586 696.709,475.086 696.5,474.5C 698.975,472.589 701.641,470.922 704.5,469.5C 708.009,464.406 712.676,460.739 718.5,458.5C 720.78,455.408 723.78,453.408 727.5,452.5C 727.33,451.178 727.663,450.011 728.5,449C 731.084,447.17 733.751,446.336 736.5,446.5C 738.632,441.181 742.299,437.514 747.5,435.5C 747.244,433.088 748.244,431.421 750.5,430.5C 749.012,428.114 749.345,427.448 751.5,428.5 Z"/></g>
<g><path style="opacity:1" fill="#f2fcf1" d="M 437.5,415.5 C 450.168,424.255 464.168,426.922 479.5,423.5C 482.675,430.014 487.008,435.681 492.5,440.5C 491.957,440.56 491.624,440.893 491.5,441.5C 494.631,445.949 497.298,450.616 499.5,455.5C 496.54,454.151 494.873,455.151 494.5,458.5C 491.833,459.833 489.167,461.167 486.5,462.5C 486.5,463.5 486.5,464.5 486.5,465.5C 482.446,467.386 478.78,470.053 475.5,473.5C 475.162,475.655 475.162,477.989 475.5,480.5C 462.869,458.855 450.202,437.189 437.5,415.5 Z"/></g>
<g><path style="opacity:1" fill="#fbfcfb" d="M 532.5,437.5 C 525.739,450.029 518.739,462.362 511.5,474.5C 509.581,471.681 507.415,469.014 505,466.5C 504.19,462.227 502.357,458.56 499.5,455.5C 497.298,450.616 494.631,445.949 491.5,441.5C 491.624,440.893 491.957,440.56 492.5,440.5C 494.284,440.893 495.95,441.559 497.5,442.5C 501.227,444.806 505.394,445.806 510,445.5C 513.477,445.672 516.644,445.006 519.5,443.5C 523.912,441.796 528.246,439.796 532.5,437.5 Z"/></g>
<g><path style="opacity:1" fill="#727272" d="M 497.5,442.5 C 504.799,443.35 512.132,443.683 519.5,443.5C 516.644,445.006 513.477,445.672 510,445.5C 505.394,445.806 501.227,444.806 497.5,442.5 Z"/></g>
<g><path style="opacity:1" fill="#c4f8c0" d="M 761.5,445.5 C 766.635,453.869 770.635,462.869 773.5,472.5C 771.919,470.326 770.419,467.993 769,465.5C 768.591,467.991 767.424,469.991 765.5,471.5C 763.263,472.132 761.597,473.465 760.5,475.5C 758.471,474.371 758.137,474.871 759.5,477C 758.416,479.825 757.249,479.992 756,477.5C 755.517,478.448 755.351,479.448 755.5,480.5C 754.167,480.5 752.833,480.5 751.5,480.5C 751.815,482.226 751.981,483.893 752,485.5C 751.586,485.043 751.086,484.709 750.5,484.5C 747.94,486.273 745.607,488.273 743.5,490.5C 741.877,489.509 740.877,490.176 740.5,492.5C 738.5,493.5 736.5,494.5 734.5,495.5C 734.709,496.086 735.043,496.586 735.5,497C 732.201,495.657 730.534,496.824 730.5,500.5C 729.5,500.5 728.5,500.5 727.5,500.5C 727.5,501.5 727.5,502.5 727.5,503.5C 726.178,503.67 725.011,503.337 724,502.5C 724,503.833 724,505.167 724,506.5C 722.506,505.253 721.006,505.253 719.5,506.5C 720.025,507.192 720.692,507.692 721.5,508C 720.207,508.49 718.873,508.657 717.5,508.5C 717.5,509.5 717.5,510.5 717.5,511.5C 714.626,512.063 711.96,513.063 709.5,514.5C 709.719,515.675 709.386,516.675 708.5,517.5C 705.5,519.167 703.167,521.5 701.5,524.5C 700.476,523.147 699.143,522.48 697.5,522.5C 695.983,514.104 694.316,505.771 692.5,497.5C 695.26,495.96 698.26,494.627 701.5,493.5C 703.45,490.595 705.116,487.595 706.5,484.5C 707.822,484.67 708.989,484.337 710,483.5C 710.249,484.624 710.749,485.624 711.5,486.5C 713.244,483.453 714.911,480.453 716.5,477.5C 717.978,477.762 719.311,477.429 720.5,476.5C 723.596,474.09 726.596,471.423 729.5,468.5C 730.962,469.471 732.295,469.138 733.5,467.5C 731.15,466.226 731.317,464.893 734,463.5C 735.087,465.932 735.587,465.598 735.5,462.5C 736.5,462.5 737.5,462.5 738.5,462.5C 738.633,459.104 739.633,458.771 741.5,461.5C 742.219,458.178 743.886,455.512 746.5,453.5C 747.192,454.025 747.692,454.692 748,455.5C 748.309,454.234 748.809,453.067 749.5,452C 752.277,449.945 755.277,448.445 758.5,447.5C 758.402,444.752 759.402,444.086 761.5,445.5 Z"/></g>
<g><path style="opacity:1" fill="#fdfeb8" d="M 370.5,432.5 C 361.133,444.864 353.466,458.198 347.5,472.5C 345.755,474.033 344.755,476.033 344.5,478.5C 344.371,480.216 344.038,481.883 343.5,483.5C 341.755,485.033 340.755,487.033 340.5,489.5C 340.122,491.921 339.455,494.254 338.5,496.5C 337.5,496.5 336.5,496.5 335.5,496.5C 334.046,503.891 332.38,511.224 330.5,518.5C 329.178,518.33 328.011,518.663 327,519.5C 326.692,518.692 326.192,518.025 325.5,517.5C 323.644,518.276 322.311,519.609 321.5,521.5C 320.808,520.975 320.308,520.308 320,519.5C 318.092,522.411 315.592,524.578 312.5,526C 312.957,526.414 313.291,526.914 313.5,527.5C 310.027,529.813 306.36,531.813 302.5,533.5C 301.289,534.274 301.289,535.107 302.5,536C 300.368,536.92 298.368,538.087 296.5,539.5C 295.334,542.074 293.667,544.241 291.5,546C 290.207,546.49 288.873,546.657 287.5,546.5C 287.5,547.5 287.5,548.5 287.5,549.5C 284.136,548.789 281.803,549.956 280.5,553C 279.552,553.483 278.552,553.649 277.5,553.5C 277.5,554.833 277.5,556.167 277.5,557.5C 275.876,557.36 274.71,558.027 274,559.5C 273.692,558.692 273.192,558.025 272.5,557.5C 271.5,559.5 270.5,561.5 269.5,563.5C 267.865,564.33 266.198,564.497 264.5,564C 263.929,565.205 263.262,566.372 262.5,567.5C 261.914,567.291 261.414,566.957 261,566.5C 260.727,568.101 260.227,569.601 259.5,571C 257.874,570.805 256.207,570.805 254.5,571C 256.405,571.826 256.739,572.993 255.5,574.5C 252.798,575.522 250.131,576.522 247.5,577.5C 247.616,580.91 245.95,582.244 242.5,581.5C 242.5,582.5 242.5,583.5 242.5,584.5C 241.178,584.33 240.011,584.663 239,585.5C 239.409,587.225 239.242,588.892 238.5,590.5C 237.831,588.369 237.165,586.369 236.5,584.5C 233.384,566.805 232.717,549.139 234.5,531.5C 234.168,540.857 234.502,550.19 235.5,559.5C 236.327,555.541 236.827,551.541 237,547.5C 237.414,547.957 237.914,548.291 238.5,548.5C 240.651,547.095 242.318,545.261 243.5,543C 244.793,542.51 246.127,542.343 247.5,542.5C 248.138,540.201 249.138,538.034 250.5,536C 253.658,533.325 257.325,531.491 261.5,530.5C 262.863,529.107 263.696,527.441 264,525.5C 264.414,525.957 264.914,526.291 265.5,526.5C 266.842,524.995 268.508,524.328 270.5,524.5C 270.5,523.5 270.5,522.5 270.5,521.5C 272.833,520.167 275.167,518.833 277.5,517.5C 277.351,516.448 277.517,515.448 278,514.5C 279.587,515.727 280.921,515.394 282,513.5C 281.621,511.925 281.788,510.425 282.5,509C 283.744,508.544 284.577,509.044 285,510.5C 285.991,509.061 287.324,508.061 289,507.5C 290,508.833 291,508.833 292,507.5C 292.401,505.479 293.568,504.145 295.5,503.5C 296.452,501.955 296.785,500.288 296.5,498.5C 298.564,498.313 300.564,497.813 302.5,497C 303.337,495.989 303.67,494.822 303.5,493.5C 306.842,492.988 308.676,490.988 309,487.5C 309.249,488.624 309.749,489.624 310.5,490.5C 311.506,490.062 311.506,489.396 310.5,488.5C 312.756,487.579 313.756,485.912 313.5,483.5C 315.512,484.014 317.512,484.18 319.5,484C 318.5,483.167 317.5,482.333 316.5,481.5C 319.838,480.835 322.505,479.168 324.5,476.5C 325.833,476.5 327.167,476.5 328.5,476.5C 329.386,475.675 329.719,474.675 329.5,473.5C 330.5,473.5 331.5,473.5 332.5,473.5C 332.281,472.325 332.614,471.325 333.5,470.5C 335.711,469.877 337.711,468.877 339.5,467.5C 338.975,466.808 338.308,466.308 337.5,466C 339.291,465.585 340.624,464.585 341.5,463C 343.134,462.506 344.801,462.34 346.5,462.5C 346.626,460.8 347.293,459.3 348.5,458C 348.355,457.228 348.022,456.561 347.5,456C 349.108,455.342 350.275,455.842 351,457.5C 356.303,449.521 361.636,441.521 367,433.5C 368.011,432.663 369.178,432.33 370.5,432.5 Z"/></g>
<g><path style="opacity:1" fill="#eafce9" d="M 499.5,455.5 C 502.357,458.56 504.19,462.227 505,466.5C 507.415,469.014 509.581,471.681 511.5,474.5C 511.5,475.167 511.5,475.833 511.5,476.5C 507.54,481.727 504.04,487.394 501,493.5C 497.604,497.065 494.104,500.398 490.5,503.5C 487.885,501.621 485.719,499.288 484,496.5C 480.887,491.271 478.053,485.938 475.5,480.5C 475.162,477.989 475.162,475.655 475.5,473.5C 478.78,470.053 482.446,467.386 486.5,465.5C 486.5,464.5 486.5,463.5 486.5,462.5C 489.167,461.167 491.833,459.833 494.5,458.5C 494.873,455.151 496.54,454.151 499.5,455.5 Z"/></g>
<g><path style="opacity:1" fill="#bff7b8" d="M 773.5,472.5 C 777.815,483.791 781.148,495.458 783.5,507.5C 780.615,502.339 778.782,496.672 778,490.5C 775.632,492.302 774.132,494.635 773.5,497.5C 772.167,497.5 770.833,497.5 769.5,497.5C 769.5,498.5 769.5,499.5 769.5,500.5C 766.924,501.107 764.591,502.274 762.5,504C 761.929,505.205 761.262,506.372 760.5,507.5C 759.808,506.975 759.308,506.308 759,505.5C 757.684,506.974 756.684,508.641 756,510.5C 755.692,509.692 755.192,509.025 754.5,508.5C 753.41,509.391 753.41,510.391 754.5,511.5C 752.632,512.913 750.632,514.08 748.5,515C 747.663,516.011 747.33,517.178 747.5,518.5C 745.801,518.34 744.134,518.506 742.5,519C 741.624,520.585 740.291,521.585 738.5,522C 739.308,522.308 739.975,522.808 740.5,523.5C 737.371,524.389 735.038,526.222 733.5,529C 730.859,529.323 728.525,530.323 726.5,532C 726.056,533.533 725.723,535.033 725.5,536.5C 723.929,535.691 722.262,535.357 720.5,535.5C 720.649,536.552 720.483,537.552 720,538.5C 717.887,540.691 715.387,542.358 712.5,543.5C 711.416,544.665 710.583,545.998 710,547.5C 709,546.167 708,546.167 707,547.5C 706.173,548.662 705.34,549.829 704.5,551C 705.938,553.366 705.438,553.866 703,552.5C 702,553.167 701,553.833 700,554.5C 699.529,547.367 698.362,540.367 696.5,533.5C 694.614,534.85 693.114,536.517 692,538.5C 691.912,548.11 690.745,557.444 688.5,566.5C 691.53,540.556 689.197,515.222 681.5,490.5C 680.787,487.763 680.787,485.096 681.5,482.5C 679.829,478.719 678.829,475.053 678.5,471.5C 680.034,470.264 681.7,469.764 683.5,470C 683.5,472 683.5,474 683.5,476C 685.749,477.352 687.416,479.185 688.5,481.5C 690.416,486.672 691.749,492.005 692.5,497.5C 694.316,505.771 695.983,514.104 697.5,522.5C 699.143,522.48 700.476,523.147 701.5,524.5C 703.167,521.5 705.5,519.167 708.5,517.5C 709.386,516.675 709.719,515.675 709.5,514.5C 711.96,513.063 714.626,512.063 717.5,511.5C 717.5,510.5 717.5,509.5 717.5,508.5C 718.873,508.657 720.207,508.49 721.5,508C 720.692,507.692 720.025,507.192 719.5,506.5C 721.006,505.253 722.506,505.253 724,506.5C 724,505.167 724,503.833 724,502.5C 725.011,503.337 726.178,503.67 727.5,503.5C 727.5,502.5 727.5,501.5 727.5,500.5C 728.5,500.5 729.5,500.5 730.5,500.5C 730.534,496.824 732.201,495.657 735.5,497C 735.043,496.586 734.709,496.086 734.5,495.5C 736.5,494.5 738.5,493.5 740.5,492.5C 740.877,490.176 741.877,489.509 743.5,490.5C 745.607,488.273 747.94,486.273 750.5,484.5C 751.086,484.709 751.586,485.043 752,485.5C 751.981,483.893 751.815,482.226 751.5,480.5C 752.833,480.5 754.167,480.5 755.5,480.5C 755.351,479.448 755.517,478.448 756,477.5C 757.249,479.992 758.416,479.825 759.5,477C 758.137,474.871 758.471,474.371 760.5,475.5C 761.597,473.465 763.263,472.132 765.5,471.5C 767.424,469.991 768.591,467.991 769,465.5C 770.419,467.993 771.919,470.326 773.5,472.5 Z"/></g>
<g><path style="opacity:1" fill="#9b9a77" d="M 347.5,472.5 C 347.245,474.967 346.245,476.967 344.5,478.5C 344.755,476.033 345.755,474.033 347.5,472.5 Z"/></g>
<g><path style="opacity:1" fill="#e3fac0" d="M 511.5,476.5 C 515.322,482.806 519.155,489.139 523,495.5C 525.501,498.848 528.668,501.182 532.5,502.5C 528.606,505.614 524.272,507.948 519.5,509.5C 512.465,509.674 505.465,509.341 498.5,508.5C 495.151,507.831 492.484,506.164 490.5,503.5C 494.104,500.398 497.604,497.065 501,493.5C 504.04,487.394 507.54,481.727 511.5,476.5 Z"/></g>
<g><path style="opacity:1" fill="#929273" d="M 343.5,483.5 C 343.245,485.967 342.245,487.967 340.5,489.5C 340.755,487.033 341.755,485.033 343.5,483.5 Z"/></g>
<g><path style="opacity:1" fill="#b8f6b2" d="M 783.5,507.5 C 783.704,510.518 784.037,513.518 784.5,516.5C 780.549,520.779 776.216,524.779 771.5,528.5C 769.995,525.869 769.329,526.203 769.5,529.5C 768.325,529.281 767.325,529.614 766.5,530.5C 764.703,531.695 763.703,533.362 763.5,535.5C 759.419,536.061 756.586,538.394 755,542.5C 754,543.833 753,543.833 752,542.5C 751.781,543.938 751.281,545.271 750.5,546.5C 749.914,546.291 749.414,545.957 749,545.5C 747.92,549.291 745.42,550.957 741.5,550.5C 741.881,552.942 741.214,553.609 739.5,552.5C 738.205,553.098 736.872,553.598 735.5,554C 738.001,555.418 737.668,556.418 734.5,557C 734.957,557.414 735.291,557.914 735.5,558.5C 732.68,559.236 730.68,560.902 729.5,563.5C 724.653,564.726 720.986,567.393 718.5,571.5C 717.038,570.529 715.705,570.862 714.5,572.5C 715.025,573.192 715.692,573.692 716.5,574C 710.854,576.31 706.187,579.81 702.5,584.5C 701,585.5 699.5,586.5 698,587.5C 697.05,586.978 696.216,586.311 695.5,585.5C 693.878,586.933 692.545,588.599 691.5,590.5C 690.808,589.975 690.308,589.308 690,588.5C 688.934,591.218 687.267,593.551 685,595.5C 684.667,594.833 684.333,594.167 684,593.5C 683.722,594.416 683.222,595.082 682.5,595.5C 682.5,595.167 682.5,594.833 682.5,594.5C 684.933,585.224 686.933,575.891 688.5,566.5C 690.745,557.444 691.912,548.11 692,538.5C 693.114,536.517 694.614,534.85 696.5,533.5C 698.362,540.367 699.529,547.367 700,554.5C 701,553.833 702,553.167 703,552.5C 705.438,553.866 705.938,553.366 704.5,551C 705.34,549.829 706.173,548.662 707,547.5C 708,546.167 709,546.167 710,547.5C 710.583,545.998 711.416,544.665 712.5,543.5C 715.387,542.358 717.887,540.691 720,538.5C 720.483,537.552 720.649,536.552 720.5,535.5C 722.262,535.357 723.929,535.691 725.5,536.5C 725.723,535.033 726.056,533.533 726.5,532C 728.525,530.323 730.859,529.323 733.5,529C 735.038,526.222 737.371,524.389 740.5,523.5C 739.975,522.808 739.308,522.308 738.5,522C 740.291,521.585 741.624,520.585 742.5,519C 744.134,518.506 745.801,518.34 747.5,518.5C 747.33,517.178 747.663,516.011 748.5,515C 750.632,514.08 752.632,512.913 754.5,511.5C 753.41,510.391 753.41,509.391 754.5,508.5C 755.192,509.025 755.692,509.692 756,510.5C 756.684,508.641 757.684,506.974 759,505.5C 759.308,506.308 759.808,506.975 760.5,507.5C 761.262,506.372 761.929,505.205 762.5,504C 764.591,502.274 766.924,501.107 769.5,500.5C 769.5,499.5 769.5,498.5 769.5,497.5C 770.833,497.5 772.167,497.5 773.5,497.5C 774.132,494.635 775.632,492.302 778,490.5C 778.782,496.672 780.615,502.339 783.5,507.5 Z"/></g>
<g><path style="opacity:1" fill="#a7b892" d="M 498.5,508.5 C 505.465,509.341 512.465,509.674 519.5,509.5C 516.814,510.991 513.814,511.657 510.5,511.5C 506.069,511.726 502.069,510.726 498.5,508.5 Z"/></g>
<g><path style="opacity:1" fill="#fdfebe" d="M 338.5,496.5 C 337.329,504.031 335.663,511.364 333.5,518.5C 332.236,528.991 331.236,539.657 330.5,550.5C 329.833,544.167 329.167,537.833 328.5,531.5C 327.719,532.729 327.219,534.062 327,535.5C 326.667,534.5 326.333,533.5 326,532.5C 324.251,540.737 323.418,549.071 323.5,557.5C 322.577,556.697 321.577,556.53 320.5,557C 321.517,558.049 321.684,559.216 321,560.5C 320.282,559.549 319.449,559.383 318.5,560C 318.273,561.135 317.94,562.302 317.5,563.5C 316.808,562.975 316.308,562.308 316,561.5C 315.167,564.333 313.333,566.167 310.5,567C 311.451,567.718 311.617,568.551 311,569.5C 309.89,567.963 308.39,567.297 306.5,567.5C 305.557,573.106 302.224,575.773 296.5,575.5C 295.833,577.5 295.167,579.5 294.5,581.5C 290.353,585.38 285.686,588.713 280.5,591.5C 277.972,592.816 277.972,593.983 280.5,595C 277.953,595.067 275.786,595.901 274,597.5C 273.107,596.289 272.274,596.289 271.5,597.5C 272.025,598.192 272.692,598.692 273.5,599C 272.057,600.067 270.724,601.234 269.5,602.5C 268.914,602.291 268.414,601.957 268,601.5C 267.64,603.421 266.806,605.088 265.5,606.5C 264.402,605.385 263.235,605.385 262,606.5C 257.409,610.975 252.242,614.642 246.5,617.5C 246.509,620.176 246.509,622.842 246.5,625.5C 245.824,624.398 245.158,623.398 244.5,622.5C 240.773,610.167 238.106,597.5 236.5,584.5C 237.165,586.369 237.831,588.369 238.5,590.5C 239.242,588.892 239.409,587.225 239,585.5C 240.011,584.663 241.178,584.33 242.5,584.5C 242.5,583.5 242.5,582.5 242.5,581.5C 245.95,582.244 247.616,580.91 247.5,577.5C 250.131,576.522 252.798,575.522 255.5,574.5C 256.739,572.993 256.405,571.826 254.5,571C 256.207,570.805 257.874,570.805 259.5,571C 260.227,569.601 260.727,568.101 261,566.5C 261.414,566.957 261.914,567.291 262.5,567.5C 263.262,566.372 263.929,565.205 264.5,564C 266.198,564.497 267.865,564.33 269.5,563.5C 270.5,561.5 271.5,559.5 272.5,557.5C 273.192,558.025 273.692,558.692 274,559.5C 274.71,558.027 275.876,557.36 277.5,557.5C 277.5,556.167 277.5,554.833 277.5,553.5C 278.552,553.649 279.552,553.483 280.5,553C 281.803,549.956 284.136,548.789 287.5,549.5C 287.5,548.5 287.5,547.5 287.5,546.5C 288.873,546.657 290.207,546.49 291.5,546C 293.667,544.241 295.334,542.074 296.5,539.5C 298.368,538.087 300.368,536.92 302.5,536C 301.289,535.107 301.289,534.274 302.5,533.5C 306.36,531.813 310.027,529.813 313.5,527.5C 313.291,526.914 312.957,526.414 312.5,526C 315.592,524.578 318.092,522.411 320,519.5C 320.308,520.308 320.808,520.975 321.5,521.5C 322.311,519.609 323.644,518.276 325.5,517.5C 326.192,518.025 326.692,518.692 327,519.5C 328.011,518.663 329.178,518.33 330.5,518.5C 332.38,511.224 334.046,503.891 335.5,496.5C 336.5,496.5 337.5,496.5 338.5,496.5 Z"/></g>
<g><path style="opacity:1" fill="#b1f5ab" d="M 784.5,516.5 C 787.358,532.553 788.025,548.553 786.5,564.5C 786.666,557.159 786.5,549.826 786,542.5C 785.667,545.833 785.333,549.167 785,552.5C 782.413,555.345 779.579,557.845 776.5,560C 775.207,560.49 773.873,560.657 772.5,560.5C 771.862,562.799 770.862,564.966 769.5,567C 766.851,567.794 764.684,569.294 763,571.5C 759.738,570.159 759.238,570.492 761.5,572.5C 759.833,573.5 758.5,574.833 757.5,576.5C 756.117,573.924 755.283,574.258 755,577.5C 753.795,578.071 752.628,578.738 751.5,579.5C 751.709,580.086 752.043,580.586 752.5,581C 751.207,581.49 749.873,581.657 748.5,581.5C 748.5,582.5 748.5,583.5 748.5,584.5C 747.167,584.5 745.833,584.5 744.5,584.5C 744.5,585.833 744.5,587.167 744.5,588.5C 743.07,588.579 741.736,588.246 740.5,587.5C 738.889,588.32 738.222,589.654 738.5,591.5C 735.5,591.167 734.167,592.5 734.5,595.5C 727.259,597.458 721.925,601.791 718.5,608.5C 718.002,607.397 717.669,606.397 717.5,605.5C 716.614,606.325 716.281,607.325 716.5,608.5C 715.5,608.5 714.5,608.5 713.5,608.5C 713.5,609.5 713.5,610.5 713.5,611.5C 711.5,612.167 709.5,612.833 707.5,613.5C 707.881,615.942 707.214,616.609 705.5,615.5C 703.407,617.658 701.741,619.992 700.5,622.5C 698.089,622.137 696.589,623.137 696,625.5C 695.692,624.692 695.192,624.025 694.5,623.5C 693.124,626.238 691.124,628.405 688.5,630C 689.609,631.813 688.942,632.646 686.5,632.5C 685.167,625.833 683.833,625.833 682.5,632.5C 681.022,632.238 679.689,632.571 678.5,633.5C 676.828,635.671 674.995,637.671 673,639.5C 671.56,640.148 670.06,640.481 668.5,640.5C 668.67,641.822 668.337,642.989 667.5,644C 663.892,642.71 661.225,643.877 659.5,647.5C 660,648.5 660.5,649.5 661,650.5C 662.073,649.72 663.24,649.887 664.5,651C 660.393,651.939 657.727,654.439 656.5,658.5C 654.939,657.653 653.439,657.986 652,659.5C 650.703,658.216 649.536,658.383 648.5,660C 649.5,660.333 650.5,660.667 651.5,661C 647.719,662.531 644.386,664.697 641.5,667.5C 653.569,653.043 663.902,637.376 672.5,620.5C 674.245,618.967 675.245,616.967 675.5,614.5C 675.5,614.167 675.5,613.833 675.5,613.5C 677.245,611.967 678.245,609.967 678.5,607.5C 678.629,605.784 678.962,604.117 679.5,602.5C 681.113,600.539 682.113,598.206 682.5,595.5C 683.222,595.082 683.722,594.416 684,593.5C 684.333,594.167 684.667,594.833 685,595.5C 687.267,593.551 688.934,591.218 690,588.5C 690.308,589.308 690.808,589.975 691.5,590.5C 692.545,588.599 693.878,586.933 695.5,585.5C 696.216,586.311 697.05,586.978 698,587.5C 699.5,586.5 701,585.5 702.5,584.5C 706.187,579.81 710.854,576.31 716.5,574C 715.692,573.692 715.025,573.192 714.5,572.5C 715.705,570.862 717.038,570.529 718.5,571.5C 720.986,567.393 724.653,564.726 729.5,563.5C 730.68,560.902 732.68,559.236 735.5,558.5C 735.291,557.914 734.957,557.414 734.5,557C 737.668,556.418 738.001,555.418 735.5,554C 736.872,553.598 738.205,553.098 739.5,552.5C 741.214,553.609 741.881,552.942 741.5,550.5C 745.42,550.957 747.92,549.291 749,545.5C 749.414,545.957 749.914,546.291 750.5,546.5C 751.281,545.271 751.781,543.938 752,542.5C 753,543.833 754,543.833 755,542.5C 756.586,538.394 759.419,536.061 763.5,535.5C 763.703,533.362 764.703,531.695 766.5,530.5C 767.325,529.614 768.325,529.281 769.5,529.5C 769.329,526.203 769.995,525.869 771.5,528.5C 776.216,524.779 780.549,520.779 784.5,516.5 Z"/></g>
<g><path style="opacity:1" fill="#acf5a5" d="M 786.5,564.5 C 786.666,571.508 786.5,578.508 786,585.5C 785.758,589.43 784.925,593.097 783.5,596.5C 785.163,587.23 785.663,577.897 785,568.5C 784.638,573.93 783.805,579.264 782.5,584.5C 781.5,584.5 780.5,584.5 779.5,584.5C 779.5,585.5 779.5,586.5 779.5,587.5C 778.5,587.5 777.5,587.5 776.5,587.5C 776.5,588.5 776.5,589.5 776.5,590.5C 772.423,590.017 770.09,591.684 769.5,595.5C 765.203,598.111 760.869,600.777 756.5,603.5C 754.133,607.259 750.8,609.592 746.5,610.5C 745.614,611.325 745.281,612.325 745.5,613.5C 742.467,615.965 739.134,618.131 735.5,620C 734.37,622.428 732.87,624.595 731,626.5C 730.586,626.043 730.086,625.709 729.5,625.5C 727.999,626.752 726.332,627.752 724.5,628.5C 725.853,629.524 726.52,630.857 726.5,632.5C 722.12,632.923 718.12,634.256 714.5,636.5C 714.62,639.205 713.62,639.872 711.5,638.5C 709.097,640.27 707.43,642.603 706.5,645.5C 704.167,646.833 701.833,648.167 699.5,649.5C 700.282,651.329 699.616,652.829 697.5,654C 696.207,654.49 694.873,654.657 693.5,654.5C 693.671,657.797 693.005,658.131 691.5,655.5C 690.646,656.522 689.646,657.355 688.5,658C 688.957,658.414 689.291,658.914 689.5,659.5C 687.892,660.318 686.225,660.985 684.5,661.5C 683.124,664.238 681.124,666.405 678.5,668C 675.152,667.915 672.985,669.415 672,672.5C 671.282,671.549 670.449,671.383 669.5,672C 667.559,673.816 666.892,675.816 667.5,678C 667.167,678.167 666.833,678.333 666.5,678.5C 665.749,677.624 665.249,676.624 665,675.5C 664.781,676.938 664.281,678.271 663.5,679.5C 662.914,679.291 662.414,678.957 662,678.5C 661.075,681.733 658.909,683.733 655.5,684.5C 652.79,690.709 648.124,694.542 641.5,696C 638.363,698.495 635.363,701.162 632.5,704C 631.1,705.438 629.433,706.271 627.5,706.5C 627.5,707.5 627.5,708.5 627.5,709.5C 626.127,709.343 624.793,709.51 623.5,710C 625.271,710.535 625.604,711.369 624.5,712.5C 623.109,711.355 621.776,711.355 620.5,712.5C 621.025,713.192 621.692,713.692 622.5,714C 621.207,714.49 619.873,714.657 618.5,714.5C 618.646,716.942 617.813,717.609 616,716.5C 615.751,717.624 615.251,718.624 614.5,719.5C 610.435,722.587 606.268,725.587 602,728.5C 601.506,730.134 601.34,731.801 601.5,733.5C 598.762,733.851 596.096,734.518 593.5,735.5C 592.749,736.376 592.249,737.376 592,738.5C 591.282,737.549 590.449,737.383 589.5,738C 585.747,742.923 581.08,747.423 575.5,751.5C 573.936,748.864 572.603,749.031 571.5,752C 572.308,752.308 572.975,752.808 573.5,753.5C 570.702,754.969 567.702,755.802 564.5,756C 565.448,756.483 566.448,756.649 567.5,756.5C 567.5,757.5 567.5,758.5 567.5,759.5C 564.332,760.303 561.332,761.636 558.5,763.5C 557.749,764.376 557.249,765.376 557,766.5C 556.282,765.549 555.449,765.383 554.5,766C 550.248,770.594 545.581,774.761 540.5,778.5C 541.025,779.192 541.692,779.692 542.5,780C 538.349,782.122 534.016,783.789 529.5,785C 535.857,785.346 542.19,785.846 548.5,786.5C 557.167,786.5 565.833,786.5 574.5,786.5C 549.53,788.862 524.864,787.195 500.5,781.5C 498.972,780.691 497.306,780.024 495.5,779.5C 495.082,778.778 494.416,778.278 493.5,778C 495.713,777.374 497.88,777.541 500,778.5C 502.412,777.217 504.245,775.384 505.5,773C 506.448,772.517 507.448,772.351 508.5,772.5C 508.491,770.692 508.991,769.025 510,767.5C 510.333,767.833 510.667,768.167 511,768.5C 512.353,766.566 513.853,764.733 515.5,763C 516.449,762.383 517.282,762.549 518,763.5C 518.45,760.894 519.95,759.561 522.5,759.5C 522.5,758.5 522.5,757.5 522.5,756.5C 528.439,756.673 532.105,754.006 533.5,748.5C 536.864,749.211 539.197,748.044 540.5,745C 541.448,744.517 542.448,744.351 543.5,744.5C 545.056,739.783 548.223,736.45 553,734.5C 555.33,737.182 555.83,736.849 554.5,733.5C 556.567,733.15 557.567,731.483 557.5,728.5C 559.5,728.167 561.5,727.833 563.5,727.5C 563.5,726.5 563.5,725.5 563.5,724.5C 564.5,724.5 565.5,724.5 566.5,724.5C 566.329,721.203 566.995,720.869 568.5,723.5C 569.509,720.663 571.509,719.33 574.5,719.5C 574.5,718.5 574.5,717.5 574.5,716.5C 576.672,715.199 579.005,714.199 581.5,713.5C 581.837,709.667 584.004,707.667 588,707.5C 595.013,708.235 599.846,705.235 602.5,698.5C 616.413,689.247 629.413,678.914 641.5,667.5C 644.386,664.697 647.719,662.531 651.5,661C 650.5,660.667 649.5,660.333 648.5,660C 649.536,658.383 650.703,658.216 652,659.5C 653.439,657.986 654.939,657.653 656.5,658.5C 657.727,654.439 660.393,651.939 664.5,651C 663.24,649.887 662.073,649.72 661,650.5C 660.5,649.5 660,648.5 659.5,647.5C 661.225,643.877 663.892,642.71 667.5,644C 668.337,642.989 668.67,641.822 668.5,640.5C 670.06,640.481 671.56,640.148 673,639.5C 674.995,637.671 676.828,635.671 678.5,633.5C 679.689,632.571 681.022,632.238 682.5,632.5C 683.833,625.833 685.167,625.833 686.5,632.5C 688.942,632.646 689.609,631.813 688.5,630C 691.124,628.405 693.124,626.238 694.5,623.5C 695.192,624.025 695.692,624.692 696,625.5C 696.589,623.137 698.089,622.137 700.5,622.5C 701.741,619.992 703.407,617.658 705.5,615.5C 707.214,616.609 707.881,615.942 707.5,613.5C 709.5,612.833 711.5,612.167 713.5,611.5C 713.5,610.5 713.5,609.5 713.5,608.5C 714.5,608.5 715.5,608.5 716.5,608.5C 716.281,607.325 716.614,606.325 717.5,605.5C 717.669,606.397 718.002,607.397 718.5,608.5C 721.925,601.791 727.259,597.458 734.5,595.5C 734.167,592.5 735.5,591.167 738.5,591.5C 738.222,589.654 738.889,588.32 740.5,587.5C 741.736,588.246 743.07,588.579 744.5,588.5C 744.5,587.167 744.5,585.833 744.5,584.5C 745.833,584.5 747.167,584.5 748.5,584.5C 748.5,583.5 748.5,582.5 748.5,581.5C 749.873,581.657 751.207,581.49 752.5,581C 752.043,580.586 751.709,580.086 751.5,579.5C 752.628,578.738 753.795,578.071 755,577.5C 755.283,574.258 756.117,573.924 757.5,576.5C 758.5,574.833 759.833,573.5 761.5,572.5C 759.238,570.492 759.738,570.159 763,571.5C 764.684,569.294 766.851,567.794 769.5,567C 770.862,564.966 771.862,562.799 772.5,560.5C 773.873,560.657 775.207,560.49 776.5,560C 779.579,557.845 782.413,555.345 785,552.5C 785.333,549.167 785.667,545.833 786,542.5C 786.5,549.826 786.666,557.159 786.5,564.5 Z"/></g>
<g><path style="opacity:1" fill="#fefec4" d="M 323.5,557.5 C 324.17,570.191 325.17,582.858 326.5,595.5C 324.146,594.506 323.146,595.506 323.5,598.5C 322.127,598.343 320.793,598.51 319.5,599C 320.784,600.297 320.617,601.464 319,602.5C 317.293,601.862 315.46,601.862 313.5,602.5C 313.5,603.5 313.5,604.5 313.5,605.5C 312.448,605.351 311.448,605.517 310.5,606C 309.792,608.768 308.292,609.601 306,608.5C 305.56,610.076 304.727,611.41 303.5,612.5C 299.87,614.987 296.204,617.487 292.5,620C 293.308,620.308 293.975,620.808 294.5,621.5C 292.696,622.768 290.696,623.435 288.5,623.5C 288.881,625.942 288.214,626.609 286.5,625.5C 285.64,627.931 283.973,629.264 281.5,629.5C 281.881,631.942 281.214,632.609 279.5,631.5C 277.777,634.694 275.111,636.361 271.5,636.5C 271.594,639.541 270.094,641.207 267,641.5C 266.517,642.448 266.351,643.448 266.5,644.5C 262.843,645.26 260.176,647.26 258.5,650.5C 257.583,651.127 256.583,651.461 255.5,651.5C 250.374,642.378 246.707,632.712 244.5,622.5C 245.158,623.398 245.824,624.398 246.5,625.5C 246.509,622.842 246.509,620.176 246.5,617.5C 252.242,614.642 257.409,610.975 262,606.5C 263.235,605.385 264.402,605.385 265.5,606.5C 266.806,605.088 267.64,603.421 268,601.5C 268.414,601.957 268.914,602.291 269.5,602.5C 270.724,601.234 272.057,600.067 273.5,599C 272.692,598.692 272.025,598.192 271.5,597.5C 272.274,596.289 273.107,596.289 274,597.5C 275.786,595.901 277.953,595.067 280.5,595C 277.972,593.983 277.972,592.816 280.5,591.5C 285.686,588.713 290.353,585.38 294.5,581.5C 295.167,579.5 295.833,577.5 296.5,575.5C 302.224,575.773 305.557,573.106 306.5,567.5C 308.39,567.297 309.89,567.963 311,569.5C 311.617,568.551 311.451,567.718 310.5,567C 313.333,566.167 315.167,564.333 316,561.5C 316.308,562.308 316.808,562.975 317.5,563.5C 317.94,562.302 318.273,561.135 318.5,560C 319.449,559.383 320.282,559.549 321,560.5C 321.684,559.216 321.517,558.049 320.5,557C 321.577,556.53 322.577,556.697 323.5,557.5 Z"/></g>
<g><path style="opacity:1" fill="#ebf6b9" d="M 333.5,518.5 C 332.75,531.495 332.583,544.495 333,557.5C 334.602,571.761 337.102,585.761 340.5,599.5C 339.133,596.732 338.133,593.732 337.5,590.5C 336.726,589.289 335.893,589.289 335,590.5C 333.913,588.068 333.413,588.402 333.5,591.5C 332.07,591.421 330.736,591.754 329.5,592.5C 328.577,596.806 328.577,601.139 329.5,605.5C 328.135,602.264 327.135,598.931 326.5,595.5C 325.17,582.858 324.17,570.191 323.5,557.5C 323.418,549.071 324.251,540.737 326,532.5C 326.333,533.5 326.667,534.5 327,535.5C 327.219,534.062 327.719,532.729 328.5,531.5C 329.167,537.833 329.833,544.167 330.5,550.5C 331.236,539.657 332.236,528.991 333.5,518.5 Z"/></g>
<g><path style="opacity:1" fill="#a6f59f" d="M 783.5,596.5 C 781.736,605.663 779.736,614.663 777.5,623.5C 778.466,617.516 778.966,611.516 779,605.5C 778.5,611.861 776,617.194 771.5,621.5C 770.914,621.291 770.414,620.957 770,620.5C 767.726,623.383 765.226,626.05 762.5,628.5C 761.754,629.736 761.421,631.07 761.5,632.5C 759.857,632.52 758.524,631.853 757.5,630.5C 756.684,632.287 755.684,633.954 754.5,635.5C 750.064,638.866 745.398,641.866 740.5,644.5C 739.289,645.274 739.289,646.107 740.5,647C 738.833,647.333 737.167,647.667 735.5,648C 736.308,648.308 736.975,648.808 737.5,649.5C 736.311,650.429 734.978,650.762 733.5,650.5C 733.5,651.5 733.5,652.5 733.5,653.5C 731.692,653.491 730.025,653.991 728.5,655C 727.348,657.149 725.848,658.982 724,660.5C 723.692,659.692 723.192,659.025 722.5,658.5C 720.967,660.289 719.967,662.289 719.5,664.5C 718.5,664.5 717.5,664.5 716.5,664.5C 716.539,666.359 715.706,667.692 714,668.5C 710.738,667.159 710.238,667.492 712.5,669.5C 712.167,669.833 711.833,670.167 711.5,670.5C 710.264,669.754 708.93,669.421 707.5,669.5C 707.435,671.696 706.768,673.696 705.5,675.5C 704.262,671.689 703.596,671.689 703.5,675.5C 702.5,675.5 701.5,675.5 700.5,675.5C 700.5,676.833 700.5,678.167 700.5,679.5C 698.071,679.884 695.737,680.551 693.5,681.5C 693.5,682.833 693.5,684.167 693.5,685.5C 692.167,685.5 690.833,685.5 689.5,685.5C 689.5,686.5 689.5,687.5 689.5,688.5C 685.154,690.058 681.487,692.558 678.5,696C 677.552,696.483 676.552,696.649 675.5,696.5C 675.833,699.5 674.5,700.833 671.5,700.5C 671.646,702.942 670.813,703.609 669,702.5C 668.667,703.833 668.333,705.167 668,706.5C 667.692,705.692 667.192,705.025 666.5,704.5C 665.119,706.691 663.119,708.024 660.5,708.5C 660.709,709.086 661.043,709.586 661.5,710C 659.226,712.088 656.559,713.588 653.5,714.5C 653.331,716.117 652.997,717.784 652.5,719.5C 651.377,717.711 650.044,717.378 648.5,718.5C 649.025,719.192 649.692,719.692 650.5,720C 643.81,723.835 637.476,728.335 631.5,733.5C 630.264,734.246 628.93,734.579 627.5,734.5C 627.121,738.715 624.788,741.215 620.5,742C 621.308,742.308 621.975,742.808 622.5,743.5C 620.862,744.958 619.195,745.292 617.5,744.5C 616.614,745.325 616.281,746.325 616.5,747.5C 613.612,747.22 612.112,748.553 612,751.5C 610.484,748.949 609.651,749.282 609.5,752.5C 606.95,752.561 605.45,753.894 605,756.5C 600.376,755.493 598.21,757.493 598.5,762.5C 597.167,762.5 595.833,762.5 594.5,762.5C 593.969,765.779 591.969,767.113 588.5,766.5C 588.5,767.5 588.5,768.5 588.5,769.5C 585.5,769.167 584.167,770.5 584.5,773.5C 579.769,775.845 575.103,778.179 570.5,780.5C 570.64,782.124 569.973,783.29 568.5,784C 561.681,784.812 555.015,785.646 548.5,786.5C 542.19,785.846 535.857,785.346 529.5,785C 534.016,783.789 538.349,782.122 542.5,780C 541.692,779.692 541.025,779.192 540.5,778.5C 545.581,774.761 550.248,770.594 554.5,766C 555.449,765.383 556.282,765.549 557,766.5C 557.249,765.376 557.749,764.376 558.5,763.5C 561.332,761.636 564.332,760.303 567.5,759.5C 567.5,758.5 567.5,757.5 567.5,756.5C 566.448,756.649 565.448,756.483 564.5,756C 567.702,755.802 570.702,754.969 573.5,753.5C 572.975,752.808 572.308,752.308 571.5,752C 572.603,749.031 573.936,748.864 575.5,751.5C 581.08,747.423 585.747,742.923 589.5,738C 590.449,737.383 591.282,737.549 592,738.5C 592.249,737.376 592.749,736.376 593.5,735.5C 596.096,734.518 598.762,733.851 601.5,733.5C 601.34,731.801 601.506,730.134 602,728.5C 606.268,725.587 610.435,722.587 614.5,719.5C 615.251,718.624 615.751,717.624 616,716.5C 617.813,717.609 618.646,716.942 618.5,714.5C 619.873,714.657 621.207,714.49 622.5,714C 621.692,713.692 621.025,713.192 620.5,712.5C 621.776,711.355 623.109,711.355 624.5,712.5C 625.604,711.369 625.271,710.535 623.5,710C 624.793,709.51 626.127,709.343 627.5,709.5C 627.5,708.5 627.5,707.5 627.5,706.5C 629.433,706.271 631.1,705.438 632.5,704C 635.363,701.162 638.363,698.495 641.5,696C 648.124,694.542 652.79,690.709 655.5,684.5C 658.909,683.733 661.075,681.733 662,678.5C 662.414,678.957 662.914,679.291 663.5,679.5C 664.281,678.271 664.781,676.938 665,675.5C 665.249,676.624 665.749,677.624 666.5,678.5C 666.833,678.333 667.167,678.167 667.5,678C 666.892,675.816 667.559,673.816 669.5,672C 670.449,671.383 671.282,671.549 672,672.5C 672.985,669.415 675.152,667.915 678.5,668C 681.124,666.405 683.124,664.238 684.5,661.5C 686.225,660.985 687.892,660.318 689.5,659.5C 689.291,658.914 688.957,658.414 688.5,658C 689.646,657.355 690.646,656.522 691.5,655.5C 693.005,658.131 693.671,657.797 693.5,654.5C 694.873,654.657 696.207,654.49 697.5,654C 699.616,652.829 700.282,651.329 699.5,649.5C 701.833,648.167 704.167,646.833 706.5,645.5C 707.43,642.603 709.097,640.27 711.5,638.5C 713.62,639.872 714.62,639.205 714.5,636.5C 718.12,634.256 722.12,632.923 726.5,632.5C 726.52,630.857 725.853,629.524 724.5,628.5C 726.332,627.752 727.999,626.752 729.5,625.5C 730.086,625.709 730.586,626.043 731,626.5C 732.87,624.595 734.37,622.428 735.5,620C 739.134,618.131 742.467,615.965 745.5,613.5C 745.281,612.325 745.614,611.325 746.5,610.5C 750.8,609.592 754.133,607.259 756.5,603.5C 760.869,600.777 765.203,598.111 769.5,595.5C 770.09,591.684 772.423,590.017 776.5,590.5C 776.5,589.5 776.5,588.5 776.5,587.5C 777.5,587.5 778.5,587.5 779.5,587.5C 779.5,586.5 779.5,585.5 779.5,584.5C 780.5,584.5 781.5,584.5 782.5,584.5C 783.805,579.264 784.638,573.93 785,568.5C 785.663,577.897 785.163,587.23 783.5,596.5 Z"/></g>
<g><path style="opacity:1" fill="#fefeca" d="M 326.5,595.5 C 327.135,598.931 328.135,602.264 329.5,605.5C 331.984,615.237 334.65,624.903 337.5,634.5C 335.795,633.912 334.128,633.579 332.5,633.5C 331.41,634.391 331.41,635.391 332.5,636.5C 331.726,637.711 330.893,637.711 330,636.5C 329.517,637.448 329.351,638.448 329.5,639.5C 327.857,639.52 326.524,638.853 325.5,637.5C 325.167,637.833 324.833,638.167 324.5,638.5C 325.833,639.62 326.333,640.953 326,642.5C 325.586,642.043 325.086,641.709 324.5,641.5C 320.607,643.178 317.607,645.844 315.5,649.5C 313.922,650.298 312.256,650.798 310.5,651C 309.167,652 309.167,653 310.5,654C 308.187,654.662 305.854,655.162 303.5,655.5C 303.421,656.93 303.754,658.264 304.5,659.5C 303.369,660.604 302.535,660.271 302,658.5C 301.585,660.291 300.585,661.624 299,662.5C 297.887,661.289 296.72,661.289 295.5,662.5C 294.548,664.045 294.215,665.712 294.5,667.5C 292.692,667.491 291.025,667.991 289.5,669C 290.711,669.893 290.711,670.726 289.5,671.5C 288.377,669.711 287.044,669.378 285.5,670.5C 286.853,671.524 287.52,672.857 287.5,674.5C 284.336,674.558 281.336,675.224 278.5,676.5C 278.719,677.675 278.386,678.675 277.5,679.5C 276.549,678.674 275.549,678.508 274.5,679C 275.747,680.494 275.747,681.994 274.5,683.5C 273.817,683.137 273.15,682.804 272.5,682.5C 266.073,672.651 260.406,662.318 255.5,651.5C 256.583,651.461 257.583,651.127 258.5,650.5C 260.176,647.26 262.843,645.26 266.5,644.5C 266.351,643.448 266.517,642.448 267,641.5C 270.094,641.207 271.594,639.541 271.5,636.5C 275.111,636.361 277.777,634.694 279.5,631.5C 281.214,632.609 281.881,631.942 281.5,629.5C 283.973,629.264 285.64,627.931 286.5,625.5C 288.214,626.609 288.881,625.942 288.5,623.5C 290.696,623.435 292.696,622.768 294.5,621.5C 293.975,620.808 293.308,620.308 292.5,620C 296.204,617.487 299.87,614.987 303.5,612.5C 304.727,611.41 305.56,610.076 306,608.5C 308.292,609.601 309.792,608.768 310.5,606C 311.448,605.517 312.448,605.351 313.5,605.5C 313.5,604.5 313.5,603.5 313.5,602.5C 315.46,601.862 317.293,601.862 319,602.5C 320.617,601.464 320.784,600.297 319.5,599C 320.793,598.51 322.127,598.343 323.5,598.5C 323.146,595.506 324.146,594.506 326.5,595.5 Z"/></g>
<g><path style="opacity:1" fill="#708c6c" d="M 682.5,594.5 C 682.5,594.833 682.5,595.167 682.5,595.5C 682.113,598.206 681.113,600.539 679.5,602.5C 680.06,600.199 680.56,597.866 681,595.5C 681.383,594.944 681.883,594.611 682.5,594.5 Z"/></g>
<g><path style="opacity:1" fill="#7c9f77" d="M 678.5,607.5 C 678.245,609.967 677.245,611.967 675.5,613.5C 675.755,611.033 676.755,609.033 678.5,607.5 Z"/></g>
<g><path style="opacity:1" fill="#a2f59b" d="M 777.5,623.5 C 744.972,714.82 680.639,768.987 584.5,786C 581.183,786.498 577.85,786.665 574.5,786.5C 565.833,786.5 557.167,786.5 548.5,786.5C 555.015,785.646 561.681,784.812 568.5,784C 569.973,783.29 570.64,782.124 570.5,780.5C 575.103,778.179 579.769,775.845 584.5,773.5C 584.167,770.5 585.5,769.167 588.5,769.5C 588.5,768.5 588.5,767.5 588.5,766.5C 591.969,767.113 593.969,765.779 594.5,762.5C 595.833,762.5 597.167,762.5 598.5,762.5C 598.21,757.493 600.376,755.493 605,756.5C 605.45,753.894 606.95,752.561 609.5,752.5C 609.651,749.282 610.484,748.949 612,751.5C 612.112,748.553 613.612,747.22 616.5,747.5C 616.281,746.325 616.614,745.325 617.5,744.5C 619.195,745.292 620.862,744.958 622.5,743.5C 621.975,742.808 621.308,742.308 620.5,742C 624.788,741.215 627.121,738.715 627.5,734.5C 628.93,734.579 630.264,734.246 631.5,733.5C 637.476,728.335 643.81,723.835 650.5,720C 649.692,719.692 649.025,719.192 648.5,718.5C 650.044,717.378 651.377,717.711 652.5,719.5C 652.997,717.784 653.331,716.117 653.5,714.5C 656.559,713.588 659.226,712.088 661.5,710C 661.043,709.586 660.709,709.086 660.5,708.5C 663.119,708.024 665.119,706.691 666.5,704.5C 667.192,705.025 667.692,705.692 668,706.5C 668.333,705.167 668.667,703.833 669,702.5C 670.813,703.609 671.646,702.942 671.5,700.5C 674.5,700.833 675.833,699.5 675.5,696.5C 676.552,696.649 677.552,696.483 678.5,696C 681.487,692.558 685.154,690.058 689.5,688.5C 689.5,687.5 689.5,686.5 689.5,685.5C 690.833,685.5 692.167,685.5 693.5,685.5C 693.5,684.167 693.5,682.833 693.5,681.5C 695.737,680.551 698.071,679.884 700.5,679.5C 700.5,678.167 700.5,676.833 700.5,675.5C 701.5,675.5 702.5,675.5 703.5,675.5C 703.596,671.689 704.262,671.689 705.5,675.5C 706.768,673.696 707.435,671.696 707.5,669.5C 708.93,669.421 710.264,669.754 711.5,670.5C 711.833,670.167 712.167,669.833 712.5,669.5C 710.238,667.492 710.738,667.159 714,668.5C 715.706,667.692 716.539,666.359 716.5,664.5C 717.5,664.5 718.5,664.5 719.5,664.5C 719.967,662.289 720.967,660.289 722.5,658.5C 723.192,659.025 723.692,659.692 724,660.5C 725.848,658.982 727.348,657.149 728.5,655C 730.025,653.991 731.692,653.491 733.5,653.5C 733.5,652.5 733.5,651.5 733.5,650.5C 734.978,650.762 736.311,650.429 737.5,649.5C 736.975,648.808 736.308,648.308 735.5,648C 737.167,647.667 738.833,647.333 740.5,647C 739.289,646.107 739.289,645.274 740.5,644.5C 745.398,641.866 750.064,638.866 754.5,635.5C 755.684,633.954 756.684,632.287 757.5,630.5C 758.524,631.853 759.857,632.52 761.5,632.5C 761.421,631.07 761.754,629.736 762.5,628.5C 765.226,626.05 767.726,623.383 770,620.5C 770.414,620.957 770.914,621.291 771.5,621.5C 776,617.194 778.5,611.861 779,605.5C 778.966,611.516 778.466,617.516 777.5,623.5 Z"/></g>
<g><path style="opacity:1" fill="#7b9f77" d="M 675.5,614.5 C 675.245,616.967 674.245,618.967 672.5,620.5C 672.755,618.033 673.755,616.033 675.5,614.5 Z"/></g>
<g><path style="opacity:1" fill="#fefed1" d="M 337.5,634.5 C 341.901,644.968 346.568,655.301 351.5,665.5C 350.15,664.517 349.15,663.184 348.5,661.5C 347.192,663.641 345.692,665.641 344,667.5C 343.692,666.692 343.192,666.025 342.5,665.5C 341.568,667.766 340.234,669.766 338.5,671.5C 337.719,670.263 336.719,669.263 335.5,668.5C 334.261,670.007 334.595,671.174 336.5,672C 335.057,673.067 333.724,674.234 332.5,675.5C 331.549,674.674 330.549,674.508 329.5,675C 330.694,677.658 329.694,678.824 326.5,678.5C 326.5,679.5 326.5,680.5 326.5,681.5C 324.027,681.736 322.36,683.069 321.5,685.5C 320.808,684.975 320.308,684.308 320,683.5C 319.751,684.624 319.251,685.624 318.5,686.5C 316.162,684.989 315.496,685.323 316.5,687.5C 314.631,688.624 312.631,689.457 310.5,690C 311.308,690.308 311.975,690.808 312.5,691.5C 308.466,694.689 304.133,697.522 299.5,700C 296.491,702.487 294.158,705.32 292.5,708.5C 289.785,706.098 287.285,703.432 285,700.5C 280.978,694.326 276.811,688.326 272.5,682.5C 273.15,682.804 273.817,683.137 274.5,683.5C 275.747,681.994 275.747,680.494 274.5,679C 275.549,678.508 276.549,678.674 277.5,679.5C 278.386,678.675 278.719,677.675 278.5,676.5C 281.336,675.224 284.336,674.558 287.5,674.5C 287.52,672.857 286.853,671.524 285.5,670.5C 287.044,669.378 288.377,669.711 289.5,671.5C 290.711,670.726 290.711,669.893 289.5,669C 291.025,667.991 292.692,667.491 294.5,667.5C 294.215,665.712 294.548,664.045 295.5,662.5C 296.72,661.289 297.887,661.289 299,662.5C 300.585,661.624 301.585,660.291 302,658.5C 302.535,660.271 303.369,660.604 304.5,659.5C 303.754,658.264 303.421,656.93 303.5,655.5C 305.854,655.162 308.187,654.662 310.5,654C 309.167,653 309.167,652 310.5,651C 312.256,650.798 313.922,650.298 315.5,649.5C 317.607,645.844 320.607,643.178 324.5,641.5C 325.086,641.709 325.586,642.043 326,642.5C 326.333,640.953 325.833,639.62 324.5,638.5C 324.833,638.167 325.167,637.833 325.5,637.5C 326.524,638.853 327.857,639.52 329.5,639.5C 329.351,638.448 329.517,637.448 330,636.5C 330.893,637.711 331.726,637.711 332.5,636.5C 331.41,635.391 331.41,634.391 332.5,633.5C 334.128,633.579 335.795,633.912 337.5,634.5 Z"/></g>
<g><path style="opacity:1" fill="#def8be" d="M 340.5,599.5 C 343.049,602.993 344.549,606.993 345,611.5C 349.266,619.794 353.599,628.127 358,636.5C 363.689,645.008 369.522,653.341 375.5,661.5C 372.153,659.73 369.486,660.397 367.5,663.5C 364.442,663.927 361.942,665.26 360,667.5C 358.348,667.14 356.682,666.807 355,666.5C 355.019,668.107 355.185,669.774 355.5,671.5C 353.808,669.795 352.475,667.795 351.5,665.5C 346.568,655.301 341.901,644.968 337.5,634.5C 334.65,624.903 331.984,615.237 329.5,605.5C 328.577,601.139 328.577,596.806 329.5,592.5C 330.736,591.754 332.07,591.421 333.5,591.5C 333.413,588.402 333.913,588.068 335,590.5C 335.893,589.289 336.726,589.289 337.5,590.5C 338.133,593.732 339.133,596.732 340.5,599.5 Z"/></g>
<g><path style="opacity:1" fill="#fefed7" d="M 351.5,665.5 C 352.475,667.795 353.808,669.795 355.5,671.5C 359.085,677.002 362.419,682.669 365.5,688.5C 364.603,687.402 363.77,687.402 363,688.5C 362.667,689.833 362.333,691.167 362,692.5C 361.751,691.376 361.251,690.376 360.5,689.5C 359.269,690.651 359.269,691.817 360.5,693C 358.893,692.981 357.226,692.815 355.5,692.5C 354.833,694.833 354.167,697.167 353.5,699.5C 351.007,699.329 349.174,700.329 348,702.5C 347.692,701.692 347.192,701.025 346.5,700.5C 346.386,702.419 345.72,704.419 344.5,706.5C 343.127,706.343 341.793,706.51 340.5,707C 337.27,710.396 333.603,713.23 329.5,715.5C 328.024,716.88 327.024,718.547 326.5,720.5C 324.784,720.997 323.117,721.331 321.5,721.5C 320.614,722.325 320.281,723.325 320.5,724.5C 319.167,724.5 317.833,724.5 316.5,724.5C 316.091,727.866 314.425,728.866 311.5,727.5C 310.761,727.631 310.094,727.464 309.5,727C 303.711,720.811 298.044,714.645 292.5,708.5C 294.158,705.32 296.491,702.487 299.5,700C 304.133,697.522 308.466,694.689 312.5,691.5C 311.975,690.808 311.308,690.308 310.5,690C 312.631,689.457 314.631,688.624 316.5,687.5C 315.496,685.323 316.162,684.989 318.5,686.5C 319.251,685.624 319.751,684.624 320,683.5C 320.308,684.308 320.808,684.975 321.5,685.5C 322.36,683.069 324.027,681.736 326.5,681.5C 326.5,680.5 326.5,679.5 326.5,678.5C 329.694,678.824 330.694,677.658 329.5,675C 330.549,674.508 331.549,674.674 332.5,675.5C 333.724,674.234 335.057,673.067 336.5,672C 334.595,671.174 334.261,670.007 335.5,668.5C 336.719,669.263 337.719,670.263 338.5,671.5C 340.234,669.766 341.568,667.766 342.5,665.5C 343.192,666.025 343.692,666.692 344,667.5C 345.692,665.641 347.192,663.641 348.5,661.5C 349.15,663.184 350.15,664.517 351.5,665.5 Z"/></g>
<g><path style="opacity:1" fill="#d1f7bc" d="M 375.5,661.5 C 383.298,668.798 390.965,676.298 398.5,684C 403.998,687.389 408.998,691.223 413.5,695.5C 410.91,695.604 408.577,694.937 406.5,693.5C 404.016,695.483 401.683,697.65 399.5,700C 398.207,700.49 396.873,700.657 395.5,700.5C 395.5,701.833 395.5,703.167 395.5,704.5C 393.738,704.643 392.071,704.309 390.5,703.5C 390.942,706.031 390.275,708.365 388.5,710.5C 386.408,710.439 384.908,709.439 384,707.5C 383.536,708.094 383.369,708.761 383.5,709.5C 380.844,707.344 378.344,705.011 376,702.5C 372.723,697.586 369.223,692.92 365.5,688.5C 362.419,682.669 359.085,677.002 355.5,671.5C 355.185,669.774 355.019,668.107 355,666.5C 356.682,666.807 358.348,667.14 360,667.5C 361.942,665.26 364.442,663.927 367.5,663.5C 369.486,660.397 372.153,659.73 375.5,661.5 Z"/></g>
<g><path style="opacity:1" fill="#fefedd" d="M 365.5,688.5 C 369.223,692.92 372.723,697.586 376,702.5C 378.344,705.011 380.844,707.344 383.5,709.5C 384.11,710.391 384.443,711.391 384.5,712.5C 383.206,711.71 382.039,710.71 381,709.5C 380.493,710.996 380.993,712.163 382.5,713C 381.207,713.49 379.873,713.657 378.5,713.5C 378.64,715.124 377.973,716.29 376.5,717C 377.308,717.308 377.975,717.808 378.5,718.5C 376.577,719.308 374.577,719.808 372.5,720C 371.663,721.011 371.33,722.178 371.5,723.5C 370.5,723.5 369.5,723.5 368.5,723.5C 368.5,724.5 368.5,725.5 368.5,726.5C 365.167,727.167 361.833,727.833 358.5,728.5C 358.5,730.167 358.5,731.833 358.5,733.5C 355.87,734.428 353.204,735.428 350.5,736.5C 351.412,738.988 350.412,740.655 347.5,741.5C 346.614,742.325 346.281,743.325 346.5,744.5C 344.143,744.337 341.81,744.503 339.5,745C 341.158,745.725 341.658,746.892 341,748.5C 339.644,747.62 338.144,747.286 336.5,747.5C 327.245,742.032 318.912,735.366 311.5,727.5C 314.425,728.866 316.091,727.866 316.5,724.5C 317.833,724.5 319.167,724.5 320.5,724.5C 320.281,723.325 320.614,722.325 321.5,721.5C 323.117,721.331 324.784,720.997 326.5,720.5C 327.024,718.547 328.024,716.88 329.5,715.5C 333.603,713.23 337.27,710.396 340.5,707C 341.793,706.51 343.127,706.343 344.5,706.5C 345.72,704.419 346.386,702.419 346.5,700.5C 347.192,701.025 347.692,701.692 348,702.5C 349.174,700.329 351.007,699.329 353.5,699.5C 354.167,697.167 354.833,694.833 355.5,692.5C 357.226,692.815 358.893,692.981 360.5,693C 359.269,691.817 359.269,690.651 360.5,689.5C 361.251,690.376 361.751,691.376 362,692.5C 362.333,691.167 362.667,689.833 363,688.5C 363.77,687.402 364.603,687.402 365.5,688.5 Z"/></g>
<g><path style="opacity:1" fill="#c6f7b8" d="M 413.5,695.5 C 422.098,699.467 430.432,703.967 438.5,709C 449.264,712.517 459.931,716.017 470.5,719.5C 468.856,719.714 467.356,719.38 466,718.5C 465.667,719.167 465.333,719.833 465,720.5C 461.281,719.641 457.948,717.974 455,715.5C 454.5,715.833 454,716.167 453.5,716.5C 454.665,717.584 455.998,718.417 457.5,719C 455.322,721.677 452.989,724.177 450.5,726.5C 449.808,725.975 449.308,725.308 449,724.5C 447.914,727.471 445.748,729.137 442.5,729.5C 441.754,730.736 441.421,732.07 441.5,733.5C 440.5,733.5 439.5,733.5 438.5,733.5C 438.657,734.873 438.49,736.207 438,737.5C 437.692,736.692 437.192,736.025 436.5,735.5C 435.194,736.912 434.36,738.579 434,740.5C 433,739.833 432,739.167 431,738.5C 430.383,739.449 430.549,740.282 431.5,741C 430.207,741.49 428.873,741.657 427.5,741.5C 426.933,743.969 426.933,746.302 427.5,748.5C 421.246,744.918 415.246,740.918 409.5,736.5C 401.193,728.528 392.86,720.528 384.5,712.5C 384.443,711.391 384.11,710.391 383.5,709.5C 383.369,708.761 383.536,708.094 384,707.5C 384.908,709.439 386.408,710.439 388.5,710.5C 390.275,708.365 390.942,706.031 390.5,703.5C 392.071,704.309 393.738,704.643 395.5,704.5C 395.5,703.167 395.5,701.833 395.5,700.5C 396.873,700.657 398.207,700.49 399.5,700C 401.683,697.65 404.016,695.483 406.5,693.5C 408.577,694.937 410.91,695.604 413.5,695.5 Z"/></g>
<g><path style="opacity:1" fill="#fefee3" d="M 384.5,712.5 C 392.86,720.528 401.193,728.528 409.5,736.5C 407.273,737.401 406.273,739.067 406.5,741.5C 404.473,741.338 402.473,741.505 400.5,742C 402.405,742.826 402.739,743.993 401.5,745.5C 399.249,744.135 397.249,744.469 395.5,746.5C 396.025,747.192 396.692,747.692 397.5,748C 395.187,748.662 392.854,749.162 390.5,749.5C 390.528,751.582 389.861,753.416 388.5,755C 385.343,754.421 383.009,755.754 381.5,759C 380.552,759.483 379.552,759.649 378.5,759.5C 378.039,761.916 376.706,763.75 374.5,765C 375.291,766.101 375.291,766.934 374.5,767.5C 371.881,765.427 368.881,764.427 365.5,764.5C 355.094,760.094 345.427,754.427 336.5,747.5C 338.144,747.286 339.644,747.62 341,748.5C 341.658,746.892 341.158,745.725 339.5,745C 341.81,744.503 344.143,744.337 346.5,744.5C 346.281,743.325 346.614,742.325 347.5,741.5C 350.412,740.655 351.412,738.988 350.5,736.5C 353.204,735.428 355.87,734.428 358.5,733.5C 358.5,731.833 358.5,730.167 358.5,728.5C 361.833,727.833 365.167,727.167 368.5,726.5C 368.5,725.5 368.5,724.5 368.5,723.5C 369.5,723.5 370.5,723.5 371.5,723.5C 371.33,722.178 371.663,721.011 372.5,720C 374.577,719.808 376.577,719.308 378.5,718.5C 377.975,717.808 377.308,717.308 376.5,717C 377.973,716.29 378.64,715.124 378.5,713.5C 379.873,713.657 381.207,713.49 382.5,713C 380.993,712.163 380.493,710.996 381,709.5C 382.039,710.71 383.206,711.71 384.5,712.5 Z"/></g>
<g><path style="opacity:1" fill="#b1f4aa" d="M 602.5,698.5 C 599.846,705.235 595.013,708.235 588,707.5C 584.004,707.667 581.837,709.667 581.5,713.5C 579.005,714.199 576.672,715.199 574.5,716.5C 574.5,717.5 574.5,718.5 574.5,719.5C 571.509,719.33 569.509,720.663 568.5,723.5C 566.995,720.869 566.329,721.203 566.5,724.5C 565.5,724.5 564.5,724.5 563.5,724.5C 563.5,725.5 563.5,726.5 563.5,727.5C 561.5,727.833 559.5,728.167 557.5,728.5C 557.567,731.483 556.567,733.15 554.5,733.5C 555.83,736.849 555.33,737.182 553,734.5C 548.223,736.45 545.056,739.783 543.5,744.5C 542.448,744.351 541.448,744.517 540.5,745C 539.197,748.044 536.864,749.211 533.5,748.5C 532.105,754.006 528.439,756.673 522.5,756.5C 522.5,757.5 522.5,758.5 522.5,759.5C 519.95,759.561 518.45,760.894 518,763.5C 517.282,762.549 516.449,762.383 515.5,763C 513.853,764.733 512.353,766.566 511,768.5C 510.667,768.167 510.333,767.833 510,767.5C 508.991,769.025 508.491,770.692 508.5,772.5C 507.448,772.351 506.448,772.517 505.5,773C 504.245,775.384 502.412,777.217 500,778.5C 497.88,777.541 495.713,777.374 493.5,778C 494.416,778.278 495.082,778.778 495.5,779.5C 489.055,777.816 482.721,775.816 476.5,773.5C 473.953,772.001 471.286,770.501 468.5,769C 471.345,768.462 474.012,767.462 476.5,766C 477.337,764.989 477.67,763.822 477.5,762.5C 479.167,762.5 480.833,762.5 482.5,762.5C 482.281,761.325 482.614,760.325 483.5,759.5C 485.303,758.863 486.636,757.697 487.5,756C 493.362,753.144 498.695,749.477 503.5,745C 502.692,744.692 502.025,744.192 501.5,743.5C 504.749,742.056 507.749,740.222 510.5,738C 511.793,737.51 513.127,737.343 514.5,737.5C 514.5,736.5 514.5,735.5 514.5,734.5C 517.114,734.723 518.781,733.556 519.5,731C 520.9,729.562 522.567,728.729 524.5,728.5C 524.5,727.5 524.5,726.5 524.5,725.5C 523.448,725.649 522.448,725.483 521.5,725C 527.793,724.608 533.793,723.441 539.5,721.5C 561.765,717.22 582.765,709.553 602.5,698.5 Z"/></g>
<g><path style="opacity:1" fill="#86a981" d="M 477.5,720.5 C 483.72,720.957 489.72,721.957 495.5,723.5C 489.828,723.133 484.161,722.633 478.5,722C 477.944,721.617 477.611,721.117 477.5,720.5 Z"/></g>
<g><path style="opacity:1" fill="#baf7b1" d="M 470.5,719.5 C 472.806,719.993 475.139,720.326 477.5,720.5C 477.611,721.117 477.944,721.617 478.5,722C 484.161,722.633 489.828,723.133 495.5,723.5C 510.233,723.915 524.9,723.248 539.5,721.5C 533.793,723.441 527.793,724.608 521.5,725C 522.448,725.483 523.448,725.649 524.5,725.5C 524.5,726.5 524.5,727.5 524.5,728.5C 522.567,728.729 520.9,729.562 519.5,731C 518.781,733.556 517.114,734.723 514.5,734.5C 514.5,735.5 514.5,736.5 514.5,737.5C 513.127,737.343 511.793,737.51 510.5,738C 507.749,740.222 504.749,742.056 501.5,743.5C 502.025,744.192 502.692,744.692 503.5,745C 498.695,749.477 493.362,753.144 487.5,756C 486.636,757.697 485.303,758.863 483.5,759.5C 482.614,760.325 482.281,761.325 482.5,762.5C 480.833,762.5 479.167,762.5 477.5,762.5C 477.67,763.822 477.337,764.989 476.5,766C 474.012,767.462 471.345,768.462 468.5,769C 471.286,770.501 473.953,772.001 476.5,773.5C 461.365,768.916 447.365,762.249 434.5,753.5C 431.991,752.079 429.657,750.412 427.5,748.5C 426.933,746.302 426.933,743.969 427.5,741.5C 428.873,741.657 430.207,741.49 431.5,741C 430.549,740.282 430.383,739.449 431,738.5C 432,739.167 433,739.833 434,740.5C 434.36,738.579 435.194,736.912 436.5,735.5C 437.192,736.025 437.692,736.692 438,737.5C 438.49,736.207 438.657,734.873 438.5,733.5C 439.5,733.5 440.5,733.5 441.5,733.5C 441.421,732.07 441.754,730.736 442.5,729.5C 445.748,729.137 447.914,727.471 449,724.5C 449.308,725.308 449.808,725.975 450.5,726.5C 452.989,724.177 455.322,721.677 457.5,719C 455.998,718.417 454.665,717.584 453.5,716.5C 454,716.167 454.5,715.833 455,715.5C 457.948,717.974 461.281,719.641 465,720.5C 465.333,719.833 465.667,719.167 466,718.5C 467.356,719.38 468.856,719.714 470.5,719.5 Z"/></g>
<g><path style="opacity:1" fill="#fefeea" d="M 409.5,736.5 C 415.246,740.918 421.246,744.918 427.5,748.5C 429.657,750.412 431.991,752.079 434.5,753.5C 433.448,753.351 432.448,753.517 431.5,754C 433.014,755.439 433.347,756.939 432.5,758.5C 431.808,757.975 431.308,757.308 431,756.5C 430.798,758.256 430.298,759.922 429.5,761.5C 428.808,760.975 428.308,760.308 428,759.5C 426.011,761.324 424.177,763.324 422.5,765.5C 421.808,764.975 421.308,764.308 421,763.5C 420.798,765.256 420.298,766.922 419.5,768.5C 414.197,770.858 409.697,774.191 406,778.5C 398.987,776.12 391.82,774.12 384.5,772.5C 377.791,770.601 371.458,767.934 365.5,764.5C 368.881,764.427 371.881,765.427 374.5,767.5C 375.291,766.934 375.291,766.101 374.5,765C 376.706,763.75 378.039,761.916 378.5,759.5C 379.552,759.649 380.552,759.483 381.5,759C 383.009,755.754 385.343,754.421 388.5,755C 389.861,753.416 390.528,751.582 390.5,749.5C 392.854,749.162 395.187,748.662 397.5,748C 396.692,747.692 396.025,747.192 395.5,746.5C 397.249,744.469 399.249,744.135 401.5,745.5C 402.739,743.993 402.405,742.826 400.5,742C 402.473,741.505 404.473,741.338 406.5,741.5C 406.273,739.067 407.273,737.401 409.5,736.5 Z"/></g>
<g><path style="opacity:1" fill="#fefef1" d="M 434.5,753.5 C 447.365,762.249 461.365,768.916 476.5,773.5C 482.721,775.816 489.055,777.816 495.5,779.5C 497.306,780.024 498.972,780.691 500.5,781.5C 497.159,780.995 493.826,780.828 490.5,781C 492.878,781.511 495.212,782.178 497.5,783C 497.167,783.333 496.833,783.667 496.5,784C 458.309,790.839 420.976,787.005 384.5,772.5C 391.82,774.12 398.987,776.12 406,778.5C 409.697,774.191 414.197,770.858 419.5,768.5C 420.298,766.922 420.798,765.256 421,763.5C 421.308,764.308 421.808,764.975 422.5,765.5C 424.177,763.324 426.011,761.324 428,759.5C 428.308,760.308 428.808,760.975 429.5,761.5C 430.298,759.922 430.798,758.256 431,756.5C 431.308,757.308 431.808,757.975 432.5,758.5C 433.347,756.939 433.014,755.439 431.5,754C 432.448,753.517 433.448,753.351 434.5,753.5 Z"/></g>
</svg>
